<?xml version="1.0" encoding="UTF-8"?>
<svg id="Livello_1" data-name="Livello 1" xmlns="http://www.w3.org/2000/svg" xmlns:xlink="http://www.w3.org/1999/xlink" viewBox="0 0 127.55899 127.55899">
  <defs>
    <clipPath id="clippath">
      <circle cx="63.77894" cy="63.7795" r="63.7795" fill="none"/>
    </clipPath>
  </defs>
  <g clip-path="url(#clippath)">
    <g>
      <path d="m-.00056,0v62.7795C15.19244,38.12544,37.32444,18.36348,63.77943,6.0865c5.58099,9.05798,12.10699,17.44696,19.431,25.05597.35202-.49799.741-.97803,1.186-1.42401,4.26901-4.26801,11.19-4.26801,15.45801,0,4.26898,4.26898,4.26898,11.19,0,15.45801-.159.159-.32202.31201-.48801.45898,8.67599,6.70203,18.117,12.46899,28.19299,17.14404V0H-.00056Z" fill="#89c3df"/>
      <path d="m99.36645,45.63448c.16599-.14697.32898-.29895.48798-.45795,4.26901-4.26904,4.26901-11.19,0-15.45905-4.26801-4.26801-11.189-4.26801-15.45798,0-.44501.44604-.83401.92603-1.186,1.42401-7.32401-7.60901-13.85001-15.99799-19.431-25.05499C37.32442,18.36348,15.19244,38.12453-.00056,62.7795v64.7795h127.55899V62.7795c-10.07501-4.67499-19.51599-10.44202-28.19199-17.14502Z" fill="#ff7232"/>
      <path d="m81.49544,111.02467c0,5.164-10.47202,8.50305-17.716,8.50305-7.24503,0-17.716-3.33905-17.71701-8.50305" fill="none" stroke="#fff" stroke-miterlimit="10" stroke-width="1.5"/>
      <path d="m102.75515,69.9109c0,4.30304-6.28302,7.08606-10.63,7.08606s-10.629-2.78302-10.63-7.08606" fill="none" stroke="#fff" stroke-miterlimit="10" stroke-width="1.5"/>
      <path d="m46.06225,69.9109c0,4.30304-6.28302,7.08606-10.63,7.08606s-10.629-2.78302-10.63-7.08606" fill="none" stroke="#fff" stroke-miterlimit="10" stroke-width="1.5"/>
      <path d="m-.00056,62.7795C15.19244,38.12544,37.32444,18.36348,63.77943,6.0865c5.58099,9.05798,12.10699,17.44696,19.431,25.05597.35202-.49799.741-.97803,1.186-1.42401,4.26901-4.26801,11.19-4.26801,15.45801,0,4.26898,4.26898,4.26898,11.19,0,15.45801-.159.159-.32202.31201-.48801.45898,8.67599,6.70203,18.117,12.46899,28.19299,17.14404" fill="none" stroke="#fff" stroke-linecap="square" stroke-miterlimit="10" stroke-width="1.5"/>
    </g>
  </g>
</svg>