<?xml version="1.0" encoding="UTF-8"?>
<svg id="Livello_1" data-name="Livello 1" xmlns="http://www.w3.org/2000/svg" viewBox="0 0 139.53242 203.43194">
  <g>
    <g>
      <path d="m0,170.09819C0,166.61283,2.77469,165.57624,5.86388,165.29151c2.71287-.26411,3.78-.39617,3.78-1.40223v-.06107c0-1.2801-.84348-2.02205-2.3167-2.02205-1.5549,0-2.48005.7618-2.77469,1.7984l-4.00365-.32518c.59998-2.84492,3.05865-4.6334,6.79819-4.6334,3.47543,0,6.62568,1.56482,6.62568,5.28375v10.52781h-4.10517v-2.1648h-.12213c-.7618,1.45338-2.25563,2.45944-4.56241,2.45944C2.20525,174.7522,0,173.18738,0,170.09819Zm9.67441-1.2198v-1.65642c-.5183.34579-2.06327.56944-3.00827.7015-1.5236.21373-2.52967.81294-2.52967,2.03274,0,1.1885.95492,1.80832,2.28617,1.80832,1.89992,0,3.25177-1.24957,3.25177-2.88614Z" fill="#33466e"/>
      <path d="m17.92827,153.64619h4.32959v7.82487h.13206c.5786-1.27018,1.82893-2.82508,4.44028-2.82508,3.42429,0,6.32111,2.66249,6.32111,8.02792,0,5.22269-2.77469,8.03784-6.33104,8.03784-2.52051,0-3.83114-1.45338-4.43035-2.75409h-.19312v2.4999h-4.26853v-20.81136Zm7.5203,17.62065c2.12358,0,3.28231-1.89,3.28231-4.61355,0-2.70294-1.13812-4.56241-3.28231-4.56241-2.10373,0-3.28231,1.77779-3.28231,4.56241s1.19919,4.61355,3.28231,4.61355Z" fill="#33466e"/>
      <path d="m36.28858,154.64233c0-1.19919,1.05645-2.18541,2.33731-2.18541,1.29002,0,2.34723.98622,2.34723,2.18541,0,1.20911-1.05721,2.19457-2.34723,2.19457-1.28086,0-2.33731-.98546-2.33731-2.19457Zm.16259,4.2067h4.32883v15.60852h-4.32883v-15.60852Z" fill="#33466e"/>
    </g>
    <g>
      <path d="m49.20332,174.45755h-4.32883v-20.81136h4.32883v20.81136Z" fill="#ff7232"/>
      <path d="m53.22834,158.84903h4.32959v15.60852h-4.32959v-15.60852Zm2.77469-6.63561h4.00365l-3.09911,4.62348h-3.05942l2.15487-4.62348Z" fill="#ff7232"/>
    </g>
    <g>
      <path d="m69.68339,162.1008h-2.93652v7.56076c0,1.19842.59921,1.5236,1.4633,1.5236.40609,0,.86332-.10152,1.07705-.14198l.68089,3.22124c-.43662.14198-1.22972.36563-2.34723.40685-3.14033.13206-5.22345-1.38239-5.20284-4.44104v-8.12944h-2.13426v-3.25178h2.13426v-3.73954h4.32883v3.73954h2.93652v3.25178Z" fill="#33466e"/>
      <path d="m72.73288,154.64233c0-1.19919,1.05721-2.18541,2.33731-2.18541,1.29079,0,2.34723.98622,2.34723,2.18541,0,1.20911-1.05645,2.19457-2.34723,2.19457-1.2801,0-2.33731-.98546-2.33731-2.19457Zm.16259,4.2067h4.32959v15.60852h-4.32959v-15.60852Z" fill="#33466e"/>
      <path d="m80.46081,170.09819c0-3.48535,2.77469-4.52195,5.86388-4.80667,2.71287-.26411,3.78-.39617,3.78-1.40223v-.06107c0-1.2801-.84348-2.02205-2.3167-2.02205-1.5549,0-2.48005.7618-2.77469,1.7984l-4.00365-.32518c.59998-2.84492,3.05865-4.6334,6.79819-4.6334,3.47543,0,6.62568,1.56482,6.62568,5.28375v10.52781h-4.10517v-2.1648h-.12213c-.7618,1.45338-2.25563,2.45944-4.56241,2.45944-2.97774,0-5.18299-1.56482-5.18299-4.65401Zm9.67441-1.2198v-1.65642c-.5183.34579-2.06327.56944-3.00827.7015-1.5236.21373-2.52967.81294-2.52967,2.03274,0,1.1885.95492,1.80832,2.28617,1.80832,1.89992,0,3.25177-1.24957,3.25177-2.88614Z" fill="#33466e"/>
      <path d="m98.36542,158.84903h4.12578v2.75409h.18244c.65035-1.83962,2.24571-2.95713,4.34944-2.95713,2.14419,0,3.73954,1.14804,4.23723,2.95713h.16259c.64043-1.78848,2.41898-2.95713,4.70515-2.95713,2.90675,0,4.91812,1.93046,4.91812,5.31429v10.49728h-4.31814v-9.64388c0-1.73733-1.0366-2.60142-2.41898-2.60142-1.57474,0-2.4999,1.09767-2.4999,2.71363v9.53167h-4.19677v-9.73472c0-1.53505-.95492-2.51058-2.37776-2.51058-1.44269,0-2.54035,1.14881-2.54035,2.87622v9.36908h-4.32883v-15.60852Z" fill="#33466e"/>
      <path d="m124.16741,166.71436c0-4.83721,2.94721-8.06837,7.68213-8.06837,4.73568,0,7.68289,3.23117,7.68289,8.06837,0,4.80667-2.94721,8.04776-7.68289,8.04776-4.73492,0-7.68213-3.24109-7.68213-8.04776Zm10.96443-.03053c0-2.72355-1.11751-4.73568-3.2617-4.73568-2.18464,0-3.30292,2.01213-3.30292,4.73568s1.11827,4.725,3.30292,4.725c2.14419,0,3.2617-2.00145,3.2617-4.725Z" fill="#33466e"/>
    </g>
    <g>
      <path d="m17.17487,198.63595c0-3.57695,3.16018-4.21739,6.05624-4.59371,2.84568-.36563,4.02426-.26411,4.02426-1.42208v-.08168c0-2.00145-1.08774-3.1701-3.29223-3.1701-2.28693,0-3.5365,1.21903-4.06472,2.35716l-2.27624-.81294c1.21903-2.84492,3.90213-3.65787,6.25928-3.65787,1.99152,0,5.77228.56868,5.77228,5.52802v10.28355h-2.39837v-2.11365h-.12213c-.48777,1.01599-1.91061,2.47929-4.6334,2.47929-2.96782,0-5.32497-1.74726-5.32497-4.79599Zm10.0805-1.2198v-2.19457c-.40685.48777-3.12964.77172-4.14639.89386-1.86939.24426-3.53573.81294-3.53573,2.64264,0,1.66634,1.38162,2.51974,3.29223,2.51974,2.84492,0,4.3899-1.91061,4.3899-3.86167Z" fill="#33466e"/>
      <path d="m44.10429,187.45778h2.39837v15.60852h-2.39837v-2.64188h-.16259c-.73127,1.58543-2.27624,2.84492-4.6334,2.84492-2.9266,0-5.04025-1.90985-5.04025-5.89365v-9.91792h2.39837v9.75533c0,2.27624,1.42208,3.73954,3.41436,3.73954,1.78848,0,4.0235-1.34117,4.0235-4.26776v-9.2271Z" fill="#33466e"/>
      <path d="m57.90525,189.48976h-3.33269v9.10497c0,2.03274,1.01599,2.35792,2.07243,2.35792.52899,0,.85416-.08168,1.05721-.12213l.48777,2.15487c-.32518.12137-.89462.28396-1.78848.28396-2.03274,0-4.22731-1.30071-4.22731-4.02426v-9.75533h-2.35792v-2.03198h2.35792v-3.73954h2.39837v3.73954h3.33269v2.03198Z" fill="#33466e"/>
      <path d="m61.17534,183.23048c0-.89462.77249-1.62589,1.7068-1.62589.93508,0,1.70756.73127,1.70756,1.62589s-.77249,1.62589-1.70756,1.62589c-.93431,0-1.7068-.73127-1.7068-1.62589Zm.48777,4.22731h2.39837v15.60852h-2.39837v-15.60852Z" fill="#33466e"/>
      <path d="m77.58001,191.56296c-.41678-1.07706-1.2801-2.23502-3.37391-2.23502-1.90985,0-3.33269.97553-3.33269,2.3167,0,1.19919.83279,1.81901,2.68233,2.27624l2.31746.56868c2.78385.68089,4.14563,2.05259,4.14563,4.22731,0,2.69302-2.46936,4.67462-6.0967,4.67462-3.19147,0-5.37611-1.41216-5.93487-4.06472l2.27624-.56868c.4267,1.67627,1.65642,2.51974,3.61741,2.51974,2.23579,0,3.65863-1.09767,3.65863-2.43883,0-1.07706-.74195-1.82893-2.3167-2.19533l-2.60142-.60914c-2.86629-.67096-4.14639-2.11365-4.14639-4.26853,0-2.64188,2.43883-4.51127,5.73106-4.51127,3.08919,0,4.77614,1.48315,5.52802,3.69909l-2.15411.60914Z" fill="#33466e"/>
      <path d="m83.94693,187.45778h2.31746v2.43883h.20305c.65035-1.66634,2.15411-2.64188,4.18685-2.64188,2.05259,0,3.41436.97553,4.18609,2.64188h.16259c.80302-1.61596,2.43883-2.64188,4.67462-2.64188,2.78462,0,4.75553,1.69688,4.75553,5.36543v10.44614h-2.39761v-10.44614c0-2.30678-1.4633-3.21132-3.17086-3.21132-2.19457,0-3.45482,1.48391-3.45482,3.49604v10.16142h-2.43883v-10.6904c0-1.77779-1.27018-2.96705-3.08919-2.96705-1.87015,0-3.5365,1.61596-3.5365,3.90213v9.75533h-2.39837v-15.60852Z" fill="#33466e"/>
      <path d="m108.31386,195.34296c0-4.87766,2.84568-8.08822,7.07299-8.08822s7.07223,3.21056,7.07223,8.08822c0,4.83721-2.84492,8.04853-7.07223,8.04853s-7.07299-3.21132-7.07299-8.04853Zm11.74761,0c0-3.12964-1.4633-5.93411-4.67462-5.93411s-4.67462,2.80447-4.67462,5.93411c0,3.13041,1.4633,5.89442,4.67462,5.89442s4.67462-2.76401,4.67462-5.89442Z" fill="#33466e"/>
    </g>
  </g>
  <g>
    <path d="m102.34775,46.6347c.15196-.14697.30118-.29895.44674-.45795,3.90828-4.26904,3.90828-11.19,0-15.45905-3.90736-4.26801-10.24352-4.26801-14.15177,0-.4074.44604-.76354.92603-1.08579,1.42401-6.70512-7.60901-12.67967-15.99799-17.78907-25.05499C45.54832,19.36371,25.2865,39.12476,11.37732,63.77972v77.953h116.78018V63.77972c-9.22367-4.67499-17.86688-10.44202-25.80975-17.14502Z" fill="#ff7232"/>
    <path d="m11.37642,0v63.77905C25.28559,39.125,45.54743,19.36304,69.76695,7.08606c5.1094,9.05798,11.08395,17.44696,17.78907,25.05597.32227-.49799.67838-.97803,1.08579-1.42401,3.90828-4.26801,10.24444-4.26801,14.1518,0,3.90825,4.26898,3.90825,11.19,0,15.45801-.14556.159-.29481.31201-.44677.45898,7.94287,6.70203,16.58611,12.46899,25.81067,17.14404V0H11.37642Z" fill="#89c3df"/>
    <path d="m11.37642,63.77905C25.28559,39.125,45.54743,19.36304,69.76695,7.08606c5.1094,9.05798,11.08395,17.44696,17.78907,25.05597.32227-.49799.67838-.97803,1.08579-1.42401,3.90828-4.26801,10.24444-4.26801,14.1518,0,3.90825,4.26898,3.90825,11.19,0,15.45801-.14556.159-.29481.31201-.44677.45898,7.94287,6.70203,16.58611,12.46899,25.81067,17.14404" fill="none" stroke="#fff" stroke-linecap="square" stroke-miterlimit="10" stroke-width="1.5"/>
    <path d="m105.45011,70.91113c0,4.30304-5.7521,7.08606-9.73176,7.08606s-9.73084-2.78302-9.73176-7.08606" fill="none" stroke="#fff" stroke-miterlimit="10" stroke-width="1.5"/>
    <path d="m53.54779,70.91113c0,4.30304-5.7521,7.08606-9.73176,7.08606s-9.73084-2.78302-9.73176-7.08606" fill="none" stroke="#fff" stroke-miterlimit="10" stroke-width="1.5"/>
    <path d="m85.98686,112.0249c0,5.164-9.58712,8.50305-16.21899,8.50305-6.63282,0-16.21899-3.33905-16.21991-8.50305" fill="none" stroke="#fff" stroke-miterlimit="10" stroke-width="1.5"/>
  </g>
</svg>