<?xml version="1.0" encoding="UTF-8"?>
<svg id="Livello_1" data-name="Livello 1" xmlns="http://www.w3.org/2000/svg" viewBox="0 0 365.47487 141.73273">
  <g>
    <path d="m90.97043,46.6347c.15196-.14697.30118-.29895.44674-.45795,3.90828-4.26904,3.90828-11.19,0-15.45905-3.90736-4.26801-10.24352-4.26801-14.15177,0-.4074.44604-.76354.92603-1.08579,1.42401-6.70512-7.60901-12.67967-15.99799-17.78907-25.05499C34.171,19.36371,13.90918,39.12476,0,63.77972v77.953h116.78018V63.77972c-9.22367-4.67499-17.86688-10.44202-25.80975-17.14502Z" fill="#ff7232" stroke-width="0"/>
    <path d="m-.00091,0v63.77905C13.90827,39.125,34.1701,19.36304,58.38963,7.08606c5.1094,9.05798,11.08395,17.44696,17.78907,25.05597.32227-.49799.67838-.97803,1.08579-1.42401,3.90828-4.26801,10.24444-4.26801,14.1518,0,3.90825,4.26898,3.90825,11.19,0,15.45801-.14556.159-.29481.31201-.44677.45898,7.94287,6.70203,16.58611,12.46899,25.81067,17.14404V0H-.00091Z" fill="#89c3df" stroke-width="0"/>
    <path d="m-.00091,63.77905C13.90827,39.125,34.1701,19.36304,58.38963,7.08606c5.1094,9.05798,11.08395,17.44696,17.78907,25.05597.32227-.49799.67838-.97803,1.08579-1.42401,3.90828-4.26801,10.24444-4.26801,14.1518,0,3.90825,4.26898,3.90825,11.19,0,15.45801-.14556.159-.29481.31201-.44677.45898,7.94287,6.70203,16.58611,12.46899,25.81067,17.14404" fill="none" stroke="#fff" stroke-linecap="square" stroke-miterlimit="10" stroke-width="1.5"/>
    <path d="m94.07279,70.91113c0,4.30304-5.7521,7.08606-9.73176,7.08606s-9.73084-2.78302-9.73176-7.08606" fill="none" stroke="#fff" stroke-miterlimit="10" stroke-width="1.5"/>
    <path d="m42.17047,70.91113c0,4.30304-5.7521,7.08606-9.73176,7.08606s-9.73084-2.78302-9.73176-7.08606" fill="none" stroke="#fff" stroke-miterlimit="10" stroke-width="1.5"/>
    <path d="m74.60954,112.0249c0,5.164-9.58712,8.50305-16.21899,8.50305-6.63282,0-16.21899-3.33905-16.21991-8.50305" fill="none" stroke="#fff" stroke-miterlimit="10" stroke-width="1.5"/>
  </g>
  <g>
    <g>
      <g>
        <path d="m130.95341,44.23335c0-5.85807,4.66362-7.60035,9.85582-8.0789,4.55969-.44391,6.35329-.66586,6.35329-2.35683v-.10264c0-2.15155-1.41769-3.3986-3.89383-3.3986-2.61342,0-4.16839,1.28041-4.66362,3.02269l-6.72921-.54655c1.00842-4.78165,5.14088-7.78766,11.42618-7.78766,5.84139,0,11.13623,2.6301,11.13623,8.88076v17.6948h-6.89984v-3.63852h-.20528c-1.28041,2.44279-3.79119,4.13375-7.66834,4.13375-5.00489,0-8.7114-2.6301-8.7114-7.8223Zm16.26043-2.0502v-2.78406c-.87114.58119-3.46788.9571-5.05621,1.17905-2.56082.35923-4.25178,1.36637-4.25178,3.41656,0,1.99759,1.605,3.03937,3.84251,3.03937,3.19333,0,5.46547-2.10023,5.46547-4.85093Z" fill="#33466e" stroke-width="0"/>
        <path d="m161.08664,16.58137h7.27704v13.15178h.22195c.9725-2.13487,3.07401-4.74829,7.46307-4.74829,5.75543,0,10.62432,4.47502,10.62432,13.49306,0,8.77812-4.66362,13.50973-10.641,13.50973-4.23638,0-6.43925-2.44279-7.44639-4.62898h-.32459v4.20175h-7.1744V16.58137Zm12.63987,29.61621c3.56924,0,5.51679-3.17665,5.51679-7.75431,0-4.54302-1.91292-7.66835-5.51679-7.66835-3.53588,0-5.51679,2.98805-5.51679,7.66835s2.01555,7.75431,5.51679,7.75431Z" fill="#33466e" stroke-width="0"/>
        <path d="m191.94605,18.25566c0-2.01555,1.77564-3.67316,3.92847-3.67316,2.16823,0,3.94515,1.6576,3.94515,3.67316,0,2.03223-1.77692,3.68856-3.94515,3.68856-2.15283,0-3.92847-1.65632-3.92847-3.68856Zm.27327,7.07048h7.27575v26.23429h-7.27575v-26.23429Z" fill="#33466e" stroke-width="0"/>
      </g>
      <g>
        <path d="m213.65271,51.56042h-7.27575V16.58137h7.27575v34.97905Z" fill="#ff7232" stroke-width="0"/>
        <path d="m220.41784,25.32614h7.27704v26.23429h-7.27704v-26.23429Zm4.66362-11.15291h6.72921l-5.20888,7.77098h-5.14216l3.62184-7.77098Z" fill="#ff7232" stroke-width="0"/>
      </g>
      <g>
        <path d="m248.07493,30.79161h-4.93561v12.70787c0,2.01427,1.00714,2.56082,2.45946,2.56082.68254,0,1.45105-.17064,1.81028-.23863l1.14441,5.41416c-.73386.23863-2.06687.61455-3.94515.68383-5.27816.22195-8.7794-2.32347-8.74476-7.46435v-13.66369h-3.5872v-5.46548h3.5872v-6.2853h7.27575v6.2853h4.93561v5.46548Z" fill="#33466e" stroke-width="0"/>
        <path d="m253.20042,18.25566c0-2.01555,1.77692-3.67316,3.92847-3.67316,2.16951,0,3.94515,1.6576,3.94515,3.67316,0,2.03223-1.77564,3.68856-3.94515,3.68856-2.15155,0-3.92847-1.65632-3.92847-3.68856Zm.27327,7.07048h7.27704v26.23429h-7.27704v-26.23429Z" fill="#33466e" stroke-width="0"/>
        <path d="m266.18926,44.23335c0-5.85807,4.66362-7.60035,9.85582-8.0789,4.55969-.44391,6.35329-.66586,6.35329-2.35683v-.10264c0-2.15155-1.41769-3.3986-3.89383-3.3986-2.61342,0-4.16839,1.28041-4.66362,3.02269l-6.72921-.54655c1.00842-4.78165,5.14088-7.78766,11.42618-7.78766,5.84139,0,11.13623,2.6301,11.13623,8.88076v17.6948h-6.89984v-3.63852h-.20528c-1.28041,2.44279-3.79119,4.13375-7.66834,4.13375-5.00489,0-8.7114-2.6301-8.7114-7.8223Zm16.26043-2.0502v-2.78406c-.87114.58119-3.46788.9571-5.05621,1.17905-2.56082.35923-4.25178,1.36637-4.25178,3.41656,0,1.99759,1.605,3.03937,3.84251,3.03937,3.19333,0,5.46547-2.10023,5.46547-4.85093Z" fill="#33466e" stroke-width="0"/>
        <path d="m296.28273,25.32614h6.93448v4.62898h.30663c1.09309-3.09197,3.77451-4.97025,7.31039-4.97025,3.60388,0,6.2853,1.9296,7.1218,4.97025h.27327c1.07642-3.00601,4.06575-4.97025,7.90826-4.97025,4.88557,0,8.26621,3.24465,8.26621,8.93208v17.64348h-7.25779v-16.20911c0-2.92005-1.74228-4.37238-4.06575-4.37238-2.64678,0-4.20174,1.84492-4.20174,4.56098v16.02052h-7.0538v-16.36179c0-2.58006-1.605-4.21971-3.99647-4.21971-2.42482,0-4.26974,1.93088-4.26974,4.83425v15.74724h-7.27575v-26.23429Z" fill="#33466e" stroke-width="0"/>
        <path d="m339.64986,38.54592c0-8.13022,4.95357-13.56105,12.91186-13.56105,7.95958,0,12.91315,5.43084,12.91315,13.56105,0,8.0789-4.95357,13.52641-12.91315,13.52641-7.9583,0-12.91186-5.44751-12.91186-13.52641Zm18.42866-.05132c0-4.57766-1.87828-7.95958-5.48215-7.95958-3.67188,0-5.55143,3.38192-5.55143,7.95958s1.87956,7.94162,5.55143,7.94162c3.60388,0,5.48215-3.36396,5.48215-7.94162Z" fill="#33466e" stroke-width="0"/>
      </g>
    </g>
    <g>
      <path d="m130.95341,92.19868c0-6.01202,5.31152-7.08844,10.17913-7.72095,4.78293-.61455,6.76385-.44391,6.76385-2.39018v-.13728c0-3.36396-1.82824-5.3282-5.53347-5.3282-3.84379,0-5.94402,2.04891-6.83184,3.96183l-3.82583-1.36637c2.04891-4.78165,6.55857-6.14802,10.5204-6.14802,3.34728,0,9.70186.95582,9.70186,9.29131v17.28425h-4.03111v-3.55256h-.20528c-.81982,1.70764-3.21129,4.16711-7.78766,4.16711-4.98821,0-8.95004-2.93673-8.95004-8.06094Zm16.94297-2.0502v-3.68856c-.68383.81982-5.2602,1.29709-6.96912,1.50236-3.14201.41055-5.94274,1.36637-5.94274,4.44166,0,2.80074,2.32219,4.2351,5.53347,4.2351,4.78165,0,7.37839-3.21129,7.37839-6.49057Z" fill="#33466e" stroke-width="0"/>
      <path d="m176.21549,73.41078h4.03111v26.23429h-4.03111v-4.44038h-.27327c-1.22909,2.66474-3.82583,4.78165-7.78766,4.78165-4.91893,0-8.47149-3.21001-8.47149-9.90586v-16.6697h4.03111v16.39643c0,3.82583,2.39018,6.2853,5.73875,6.2853,3.00601,0,6.76256-2.25419,6.76256-7.17312v-15.50861Z" fill="#33466e" stroke-width="0"/>
      <path d="m199.41168,76.82606h-5.60147v15.30333c0,3.41656,1.70764,3.96311,3.48328,3.96311.8891,0,1.43565-.13728,1.77692-.20528l.81982,3.62184c-.54655.20399-1.50365.47727-3.00601.47727-3.41656,0-7.10512-2.18619-7.10512-6.76385v-16.39643h-3.96311v-3.41528h3.96311v-6.2853h4.03111v6.2853h5.60147v3.41528Z" fill="#33466e" stroke-width="0"/>
      <path d="m204.90795,66.30566c0-1.50365,1.29837-2.73274,2.86873-2.73274,1.57164,0,2.87002,1.22909,2.87002,2.73274s-1.29837,2.73274-2.87002,2.73274c-1.57036,0-2.86873-1.22909-2.86873-2.73274Zm.81982,7.10512h4.03111v26.23429h-4.03111v-26.23429Z" fill="#33466e" stroke-width="0"/>
      <path d="m232.48037,80.31062c-.7005-1.81028-2.15155-3.75655-5.67075-3.75655-3.21,0-5.60147,1.63964-5.60147,3.89383,0,2.01555,1.39973,3.05733,4.50838,3.82583l3.89511.95582c4.67901,1.14441,6.96784,3.44992,6.96784,7.10512,0,4.52634-4.15042,7.85694-10.24712,7.85694-5.36412,0-9.03599-2.37351-9.97513-6.83185l3.82583-.95582c.71718,2.81741,2.78406,4.2351,6.08002,4.2351,3.75783,0,6.1493-1.84492,6.1493-4.09911,0-1.81028-1.24705-3.07401-3.89383-3.68984l-4.37238-1.02381c-4.81757-1.12774-6.96912-3.55256-6.96912-7.1744,0-4.44038,4.09911-7.58239,9.63258-7.58239,5.1922,0,8.02758,2.49282,9.29131,6.2173l-3.62056,1.02381Z" fill="#33466e" stroke-width="0"/>
      <path d="m243.18167,73.41078h3.89511v4.09911h.34127c1.09309-2.80074,3.62056-4.44038,7.03712-4.44038,3.44992,0,5.73875,1.63964,7.03584,4.44038h.27327c1.34969-2.71606,4.09911-4.44038,7.85694-4.44038,4.68029,0,7.99294,2.85205,7.99294,9.01804v17.55752h-4.02983v-17.55752c0-3.87715-2.45946-5.39748-5.32948-5.39748-3.68855,0-5.80675,2.4941-5.80675,5.87603v17.07897h-4.09911v-17.96807c0-2.98805-2.13487-4.98693-5.1922-4.98693-3.14329,0-5.94402,2.71606-5.94402,6.55857v16.39643h-4.03111v-26.23429Z" fill="#33466e" stroke-width="0"/>
      <path d="m284.1368,86.66392c0-8.19821,4.78293-13.59441,11.88805-13.59441s11.88677,5.3962,11.88677,13.59441c0,8.13022-4.78165,13.5277-11.88677,13.5277s-11.88805-5.39748-11.88805-13.5277Zm19.74499,0c0-5.2602-2.45946-9.97385-7.85694-9.97385s-7.85694,4.71365-7.85694,9.97385c0,5.26148,2.45946,9.90714,7.85694,9.90714s7.85694-4.64565,7.85694-9.90714Z" fill="#33466e" stroke-width="0"/>
    </g>
    <g>
      <path d="m139.76266,119.76581c0,1.04391-.19204,1.94175-.57284,2.69021-.38244.75011-.90604,1.32623-1.56915,1.72837-.66312.40378-1.41651.60403-2.26017.60403-.84695,0-1.60198-.20025-2.26674-.60403-.66312-.40214-1.18671-.97826-1.56751-1.73001-.38244-.75175-.57284-1.64794-.57284-2.68857,0-1.04391.1904-1.9401.57284-2.69021.3808-.75011.9044-1.32623,1.56751-1.72837.66476-.40378,1.41979-.60403,2.26674-.60403.84367,0,1.59706.20025,2.26017.60403.66312.40214,1.18671.97826,1.56915,1.72837.3808.75011.57284,1.6463.57284,2.69021Zm-1.46082,0c0-.79607-.12803-1.46575-.38572-2.01232-.25605-.54658-.60567-.9602-1.05048-1.24088-.44317-.28232-.94543-.42347-1.50514-.42347-.56463,0-1.06689.14116-1.51006.42347-.44153.28067-.79114.6943-1.0472,1.24088s-.38408,1.21626-.38408,2.01232.12803,1.46739.38408,2.01232c.25605.54658.60567.9602,1.0472,1.24252.44317.28067.94543.42183,1.51006.42183.55971,0,1.06197-.14116,1.50514-.42183.44481-.28232.79442-.69594,1.05048-1.24252.2577-.54494.38572-1.21626.38572-2.01232Z" fill="#33466e" stroke-width="0"/>
      <path d="m141.48118,124.65546v-7.33366h1.37875v1.16373h.07714c.13295-.39393.36931-.70579.70907-.9323.33976-.22815.72385-.34141,1.15389-.34141.08863,0,.19368.00328.31679.00985.1231.00492.2183.01313.28888.02298v1.36562c-.05745-.01641-.15921-.03447-.3053-.05417-.14608-.02134-.29381-.03119-.43989-.03119-.33648,0-.63685.07058-.89947.21174s-.47107.33812-.62372.58761-.22815.53345-.22815.85187v4.47931h-1.428Z" fill="#33466e" stroke-width="0"/>
      <path d="m149.45497,127.55906c-.58269,0-1.08331-.07714-1.50186-.22979s-.75996-.35454-1.02422-.60567c-.26426-.25277-.46123-.52688-.59089-.82725l1.22611-.50554c.08699.13952.20189.28888.34633.44645s.34305.29216.59254.40378.5712.16742.96677.16742c.54165,0,.98811-.13131,1.341-.39393.35454-.26262.53016-.68117.53016-1.25401v-1.44277h-.09028c-.08535.15593-.2101.32992-.36931.52196-.16085.1904-.38244.35618-.66147.49569-.28067.13952-.64506.2101-1.0948.2101-.5794,0-1.09972-.13623-1.56259-.4087-.46287-.27083-.82889-.6746-1.09808-1.20805-.26919-.53181-.40378-1.18835-.40378-1.96965,0-.77965.13295-1.44769.39885-2.00412.2659-.55807.63029-.98482,1.0948-1.28355.46615-.29709.99139-.44645,1.58064-.44645.4563,0,.82397.07714,1.103.22815.28067.15101.49898.32663.65655.52688s.27903.37752.36603.53016h.10505v-1.18835h1.39845v7.49615c0,.63029-.14608,1.14732-.43825,1.5511-.29381.40542-.68938.70415-1.18671.89783-.49898.19532-1.06033.29216-1.68405.29216Zm-.01477-4.19699c.41198,0,.75996-.09684,1.04391-.28888.2856-.19368.50226-.46943.64998-.83218.14772-.3611.22159-.79442.22159-1.29997,0-.49405-.07386-.92902-.21994-1.30325-.14608-.37587-.3611-.66968-.64506-.88142-.28232-.21174-.63193-.31843-1.05048-.31843-.4284,0-.78786.11161-1.07346.3332-.28724.21994-.50226.52032-.6467.89947-.14608.37916-.2183.80263-.2183,1.27042,0,.48092.07386.90276.21994,1.2655s.36438.64506.65163.84859c.28888.20517.64506.30694,1.06689.30694Z" fill="#33466e" stroke-width="0"/>
      <path d="m156.81325,124.81796c-.46451,0-.8847-.08699-1.26058-.26098-.37587-.17234-.67296-.42512-.88962-.75667-.2183-.32992-.32827-.73698-.32827-1.2179,0-.41363.08043-.75339.23964-1.02093s.37423-.47928.64342-.63521c.27083-.15593.57448-.27411.90768-.3529.33484-.08043.6746-.14116,1.02258-.18219.43825-.05088.79607-.09356,1.06853-.12639.27411-.03283.47272-.08863.59746-.16414.12474-.07714.18548-.20025.18548-.37259v-.03447c0-.41691-.11654-.73862-.34961-.96841-.23472-.22979-.58269-.34469-1.04391-.34469-.48092,0-.85844.10669-1.13419.31843s-.46615.44645-.5712.70415l-1.341-.3053c.15921-.44645.39229-.80591.69923-1.08167s.66147-.476,1.06197-.60238c.40214-.12474.82397-.18876,1.2655-.18876.29381,0,.60403.03447.93394.10341s.63849.19368.92573.37423c.28888.18219.52524.43989.70907.77637.18548.33648.27739.77145.27739,1.30653v4.86996h-1.39353v-1.00288h-.05745c-.09192.18548-.23143.36603-.41527.54494-.18548.17727-.42183.32663-.71236.44317-.28888.11818-.63685.17727-1.04063.17727Zm.31022-1.14568c.39557,0,.73369-.07879,1.01437-.23472.28232-.15593.49734-.35946.64506-.61387.14772-.25277.22159-.5236.22159-.81412v-.94543c-.05088.05088-.14772.09848-.29381.14116-.14444.04268-.30858.08043-.49405.10997-.18383.03119-.36438.05745-.53837.08207-.17563.02298-.32171.04268-.43989.05909-.27739.03447-.52852.09356-.75667.17727-.22815.08207-.4087.20025-.54494.35454-.13459.15429-.20189.35946-.20189.61387,0,.3529.12967.62044.39065.79935.26098.18055.59418.27083.99796.27083Z" fill="#33466e" stroke-width="0"/>
      <path d="m163.76118,120.3009v4.35456h-1.428v-7.33366h1.37055v1.19328h.09028c.16906-.38901.43332-.70087.79442-.93558.3611-.23636.8174-.35454,1.36891-.35454.49898,0,.93722.10505,1.3131.3135s.6664.51867.87321.92902.31022.91753.31022,1.52319v4.66478h-1.428v-4.49244c0-.53181-.13788-.94871-.41527-1.24909-.27575-.30037-.65655-.45138-1.14075-.45138-.33156,0-.62536.07222-.88142.21502s-.45794.3529-.60567.627c-.14772.27575-.22159.60731-.22159.99631Z" fill="#33466e" stroke-width="0"/>
      <path d="m171.08499,116.18926c-.24785,0-.46123-.08371-.63685-.25113-.17727-.16578-.2659-.36603-.2659-.5991,0-.23472.08863-.43661.2659-.60403.17563-.16578.38901-.24949.63685-.24949s.46123.08371.63685.24949c.17727.16742.2659.36767.2659.5991,0,.23636-.08863.43825-.2659.60403-.17563.16742-.38901.25113-.63685.25113Zm-.72056,8.46621v-7.33366h1.428v7.33366h-1.428Z" fill="#33466e" stroke-width="0"/>
      <path d="m173.56019,124.65546v-.97826l3.97212-5.04722v-.0673h-3.8441v-1.24088h5.62499v1.04063l-3.81948,4.98485v.0673h3.95407v1.24088h-5.88761Z" fill="#33466e" stroke-width="0"/>
      <path d="m180.97427,124.65546v-.97826l3.97212-5.04722v-.0673h-3.8441v-1.24088h5.62499v1.04063l-3.81948,4.98485v.0673h3.95407v1.24088h-5.88761Z" fill="#33466e" stroke-width="0"/>
      <path d="m190.67643,124.81796c-.46451,0-.8847-.08699-1.26058-.26098-.37587-.17234-.67296-.42512-.88962-.75667-.2183-.32992-.32827-.73698-.32827-1.2179,0-.41363.08043-.75339.23964-1.02093s.37423-.47928.64342-.63521c.27083-.15593.57448-.27411.90768-.3529.33484-.08043.6746-.14116,1.02258-.18219.43825-.05088.79607-.09356,1.06853-.12639.27411-.03283.47272-.08863.59746-.16414.12474-.07714.18548-.20025.18548-.37259v-.03447c0-.41691-.11654-.73862-.34961-.96841-.23472-.22979-.58269-.34469-1.04391-.34469-.48092,0-.85844.10669-1.13419.31843s-.46615.44645-.5712.70415l-1.341-.3053c.15921-.44645.39229-.80591.69923-1.08167s.66147-.476,1.06197-.60238c.40214-.12474.82397-.18876,1.2655-.18876.29381,0,.60403.03447.93394.10341s.63849.19368.92573.37423c.28888.18219.52524.43989.70907.77637.18548.33648.27739.77145.27739,1.30653v4.86996h-1.39353v-1.00288h-.05745c-.09192.18548-.23143.36603-.41527.54494-.18548.17727-.42183.32663-.71236.44317-.28888.11818-.63685.17727-1.04063.17727Zm.31022-1.14568c.39557,0,.73369-.07879,1.01437-.23472.28232-.15593.49734-.35946.64506-.61387.14772-.25277.22159-.5236.22159-.81412v-.94543c-.05088.05088-.14772.09848-.29381.14116-.14444.04268-.30858.08043-.49405.10997-.18383.03119-.36438.05745-.53837.08207-.17563.02298-.32171.04268-.43989.05909-.27739.03447-.52852.09356-.75667.17727-.22815.08207-.4087.20025-.54494.35454-.13459.15429-.20189.35946-.20189.61387,0,.3529.12967.62044.39065.79935.26098.18055.59418.27083.99796.27083Z" fill="#33466e" stroke-width="0"/>
      <path d="m196.04372,124.65546v-.97826l3.97212-5.04722v-.0673h-3.8441v-1.24088h5.62499v1.04063l-3.81948,4.98485v.0673h3.95407v1.24088h-5.88761Z" fill="#33466e" stroke-width="0"/>
      <path d="m204.33266,116.18926c-.24785,0-.46123-.08371-.63685-.25113-.17727-.16578-.2659-.36603-.2659-.5991,0-.23472.08863-.43661.2659-.60403.17563-.16578.38901-.24949.63685-.24949s.46123.08371.63685.24949c.17727.16742.2659.36767.2659.5991,0,.23636-.08863.43825-.2659.60403-.17563.16742-.38901.25113-.63685.25113Zm-.72056,8.46621v-7.33366h1.428v7.33366h-1.428Z" fill="#33466e" stroke-width="0"/>
      <path d="m210.04792,124.80319c-.68774,0-1.28848-.15757-1.80059-.47272s-.90932-.75503-1.19328-1.32295c-.28396-.56627-.42512-1.22775-.42512-1.98606,0-.75996.14116-1.42635.42512-1.99591s.68117-1.01273,1.19328-1.32787,1.11285-.47272,1.80059-.47272,1.28684.15757,1.80059.47272c.51211.31514.90932.75831,1.19328,1.32787s.42512,1.23595.42512,1.99591c0,.75831-.14116,1.41979-.42512,1.98606-.28396.56792-.68117,1.0078-1.19328,1.32295-.51375.31514-1.11285.47272-1.80059.47272Zm.00492-1.1982c.44481,0,.81412-.11818,1.10793-.3529.29216-.23636.51047-.54986.65163-.94051.14116-.39229.21174-.82397.21174-1.29504,0-.46779-.07058-.89783-.21174-1.29176-.14116-.39229-.35946-.70907-.65163-.94707-.29381-.23964-.66312-.35782-1.10793-.35782-.44974,0-.82069.11818-1.11449.35782-.29545.238-.51375.55478-.65491.94707-.14116.39393-.21174.82397-.21174,1.29176,0,.47107.07058.90276.21174,1.29504.14116.39065.35946.70415.65491.94051.29381.23472.66476.3529,1.11449.3529Z" fill="#33466e" stroke-width="0"/>
      <path d="m216.48539,120.3009v4.35456h-1.428v-7.33366h1.37055v1.19328h.09028c.16906-.38901.43332-.70087.79442-.93558.3611-.23636.8174-.35454,1.36891-.35454.49898,0,.93722.10505,1.3131.3135s.6664.51867.87321.92902.31022.91753.31022,1.52319v4.66478h-1.428v-4.49244c0-.53181-.13788-.94871-.41527-1.24909-.27575-.30037-.65655-.45138-1.14075-.45138-.33156,0-.62536.07222-.88142.21502s-.45794.3529-.60567.627c-.14772.27575-.22159.60731-.22159.99631Z" fill="#33466e" stroke-width="0"/>
      <path d="m226.24993,124.80319c-.72385,0-1.34429-.15429-1.8646-.46451-.52196-.31186-.92245-.74847-1.20477-1.3131-.28067-.56627-.42183-1.22939-.42183-1.98935,0-.75175.14116-1.41322.42183-1.98606.28232-.57284.67789-1.02093,1.18507-1.34264s1.10136-.48256,1.78253-.48256c.41527,0,.81576.06894,1.20477.20681.38736.13623.73698.35125,1.04556.64342.30858.29381.5515.67296.73041,1.13911.17727.46615.26754,1.03242.26754,1.69718v.50718h-5.83016v-1.07018h4.43007c0-.37587-.0755-.70907-.22815-.9996-.15265-.29216-.36767-.52196-.64342-.69102-.27411-.16906-.59746-.25277-.96677-.25277-.4005,0-.75011.09848-1.0472.29381-.29873.19532-.52688.44974-.68774.76324s-.24128.65327-.24128,1.01929v.8371c0,.48913.08699.90604.25934,1.25073.17399.34305.41691.60567.72877.78458.31186.18055.67625.27083,1.09315.27083.27083,0,.51703-.03939.74026-.11818.22323-.07714.41527-.19368.57776-.34961s.28724-.34961.37259-.57776l1.35085.24292c-.10833.39721-.30037.74518-.5794,1.04391-.27903.29709-.627.52688-1.04556.69102s-.89619.24621-1.42964.24621Z" fill="#33466e" stroke-width="0"/>
      <path d="m237.29309,124.79826c-.59089,0-1.11942-.15101-1.58228-.4563-.46287-.30365-.82561-.73698-1.08823-1.30325-.26262-.56463-.39393-1.24416-.39393-2.0353,0-.79278.13295-1.47067.39885-2.0353.2659-.56299.63029-.99467,1.0948-1.2934.46615-.29873.99139-.44974,1.58064-.44974.4563,0,.82233.07714,1.10136.22815s.49405.32663.64834.52688c.15593.20025.27575.37752.3611.53016h.08535v-3.634h1.428v9.7793h-1.39353v-1.14075h-.11982c-.08535.15593-.20845.3332-.36931.53509-.16085.20025-.38244.37423-.66147.52524-.28067.14937-.64342.22323-1.08987.22323Zm.31514-1.2179c.41198,0,.75996-.10833,1.04391-.32663.2856-.2183.50226-.52032.64998-.90932s.22159-.84038.22159-1.35577c0-.50883-.07386-.95528-.21994-1.33772-.14608-.3808-.3611-.67953-.64506-.89291-.28232-.21338-.63193-.32007-1.05048-.32007-.4284,0-.78786.11161-1.07346.33484-.28724.22323-.50226.52688-.6467.9126-.14608.38408-.2183.81905-.2183,1.30325,0,.48913.07386.93066.21994,1.32295.14608.39065.36438.70087.65163.92738.28888.22815.64506.34141,1.06689.34141Z" fill="#33466e" stroke-width="0"/>
      <path d="m243.68296,116.18926c-.24785,0-.46123-.08371-.63685-.25113-.17727-.16578-.2659-.36603-.2659-.5991,0-.23472.08863-.43661.2659-.60403.17563-.16578.38901-.24949.63685-.24949s.46123.08371.63685.24949c.17727.16742.2659.36767.2659.5991,0,.23636-.08863.43825-.2659.60403-.17563.16742-.38901.25113-.63685.25113Zm-.72056,8.46621v-7.33366h1.428v7.33366h-1.428Z" fill="#33466e" stroke-width="0"/>
      <path d="m250.83935,114.87616l2.7214,7.96559h.10997l2.72304-7.96559h1.59377l-3.51911,9.7793h-1.70375l-3.51911-9.7793h1.59377Z" fill="#33466e" stroke-width="0"/>
      <path d="m261.6363,124.80319c-.68774,0-1.28848-.15757-1.80059-.47272s-.90932-.75503-1.19328-1.32295c-.28396-.56627-.42512-1.22775-.42512-1.98606,0-.75996.14116-1.42635.42512-1.99591s.68117-1.01273,1.19328-1.32787,1.11285-.47272,1.80059-.47272,1.28684.15757,1.80059.47272c.51211.31514.90932.75831,1.19328,1.32787s.42512,1.23595.42512,1.99591c0,.75831-.14116,1.41979-.42512,1.98606-.28396.56792-.68117,1.0078-1.19328,1.32295-.51375.31514-1.11285.47272-1.80059.47272Zm.00492-1.1982c.44481,0,.81412-.11818,1.10793-.3529.29216-.23636.51047-.54986.65163-.94051.14116-.39229.21174-.82397.21174-1.29504,0-.46779-.07058-.89783-.21174-1.29176-.14116-.39229-.35946-.70907-.65163-.94707-.29381-.23964-.66312-.35782-1.10793-.35782-.44974,0-.82069.11818-1.11449.35782-.29545.238-.51375.55478-.65491.94707-.14116.39393-.21174.82397-.21174,1.29176,0,.47107.07058.90276.21174,1.29504.14116.39065.35946.70415.65491.94051.29381.23472.66476.3529,1.11449.3529Z" fill="#33466e" stroke-width="0"/>
      <path d="m268.07213,114.87616v9.7793h-1.428v-9.7793h1.428Z" fill="#33466e" stroke-width="0"/>
      <path d="m273.0816,124.80319c-.68774,0-1.28848-.15757-1.80059-.47272s-.90932-.75503-1.19328-1.32295c-.28396-.56627-.42512-1.22775-.42512-1.98606,0-.75996.14116-1.42635.42512-1.99591s.68117-1.01273,1.19328-1.32787,1.11285-.47272,1.80059-.47272,1.28684.15757,1.80059.47272c.51211.31514.90932.75831,1.19328,1.32787s.42512,1.23595.42512,1.99591c0,.75831-.14116,1.41979-.42512,1.98606-.28396.56792-.68117,1.0078-1.19328,1.32295-.51375.31514-1.11285.47272-1.80059.47272Zm.00492-1.1982c.44481,0,.81412-.11818,1.10793-.3529.29216-.23636.51047-.54986.65163-.94051.14116-.39229.21174-.82397.21174-1.29504,0-.46779-.07058-.89783-.21174-1.29176-.14116-.39229-.35946-.70907-.65163-.94707-.29381-.23964-.66312-.35782-1.10793-.35782-.44974,0-.82069.11818-1.11449.35782-.29545.238-.51375.55478-.65491.94707-.14116.39393-.21174.82397-.21174,1.29176,0,.47107.07058.90276.21174,1.29504.14116.39065.35946.70415.65491.94051.29381.23472.66476.3529,1.11449.3529Z" fill="#33466e" stroke-width="0"/>
      <path d="m279.51743,120.3009v4.35456h-1.428v-7.33366h1.37055v1.19328h.09028c.16906-.38901.43332-.70087.79442-.93558.3611-.23636.8174-.35454,1.36891-.35454.49898,0,.93722.10505,1.3131.3135s.6664.51867.87321.92902.31022.91753.31022,1.52319v4.66478h-1.428v-4.49244c0-.53181-.13788-.94871-.41527-1.24909-.27575-.30037-.65655-.45138-1.14075-.45138-.33156,0-.62536.07222-.88142.21502s-.45794.3529-.60567.627c-.14772.27575-.22159.60731-.22159.99631Z" fill="#33466e" stroke-width="0"/>
      <path d="m289.54458,117.32181v1.14568h-4.00659v-1.14568h4.00659Zm-2.93313-1.75791h1.428v6.93809c0,.27739.04103.48421.12474.62372.08207.13788.1904.23143.32171.28067.13295.04924.27575.07386.43168.07386.1149,0,.21502-.00657.30201-.02298.08535-.01641.15265-.02954.20025-.03775l.2577,1.17851c-.08207.03119-.20025.06401-.3529.09848-.15265.03283-.34469.05088-.57284.05417-.37587.00657-.72713-.06073-1.05048-.20025-.32499-.13952-.58761-.35618-.78786-.64998-.20189-.29216-.30201-.65983-.30201-1.103v-7.23353Z" fill="#33466e" stroke-width="0"/>
      <path d="m293.25409,124.81796c-.46451,0-.8847-.08699-1.26058-.26098-.37587-.17234-.67296-.42512-.88962-.75667-.2183-.32992-.32827-.73698-.32827-1.2179,0-.41363.08043-.75339.23964-1.02093s.37423-.47928.64342-.63521c.27083-.15593.57448-.27411.90768-.3529.33484-.08043.6746-.14116,1.02258-.18219.43825-.05088.79607-.09356,1.06853-.12639.27411-.03283.47272-.08863.59746-.16414.12474-.07714.18548-.20025.18548-.37259v-.03447c0-.41691-.11654-.73862-.34961-.96841-.23472-.22979-.58269-.34469-1.04391-.34469-.48092,0-.85844.10669-1.13419.31843s-.46615.44645-.5712.70415l-1.341-.3053c.15921-.44645.39229-.80591.69923-1.08167s.66147-.476,1.06197-.60238c.40214-.12474.82397-.18876,1.2655-.18876.29381,0,.60403.03447.93394.10341s.63849.19368.92573.37423c.28888.18219.52524.43989.70907.77637.18548.33648.27739.77145.27739,1.30653v4.86996h-1.39353v-1.00288h-.05745c-.09192.18548-.23143.36603-.41527.54494-.18548.17727-.42183.32663-.71236.44317-.28888.11818-.63685.17727-1.04063.17727Zm.31022-1.14568c.39557,0,.73369-.07879,1.01437-.23472.28232-.15593.49734-.35946.64506-.61387.14772-.25277.22159-.5236.22159-.81412v-.94543c-.05088.05088-.14772.09848-.29381.14116-.14444.04268-.30858.08043-.49405.10997-.18383.03119-.36438.05745-.53837.08207-.17563.02298-.32171.04268-.43989.05909-.27739.03447-.52852.09356-.75667.17727-.22815.08207-.4087.20025-.54494.35454-.13459.15429-.20189.35946-.20189.61387,0,.3529.12967.62044.39065.79935.26098.18055.59418.27083.99796.27083Z" fill="#33466e" stroke-width="0"/>
      <path d="m298.77403,124.65546v-7.33366h1.37875v1.16373h.07714c.13295-.39393.36931-.70579.70907-.9323.33976-.22815.72385-.34141,1.15389-.34141.08863,0,.19368.00328.31679.00985.1231.00492.2183.01313.28888.02298v1.36562c-.05745-.01641-.15921-.03447-.3053-.05417-.14608-.02134-.29381-.03119-.43989-.03119-.33648,0-.63685.07058-.89947.21174s-.47107.33812-.62372.58761-.22815.53345-.22815.85187v4.47931h-1.428Z" fill="#33466e" stroke-width="0"/>
      <path d="m304.66163,116.18926c-.24785,0-.46123-.08371-.63685-.25113-.17727-.16578-.2659-.36603-.2659-.5991,0-.23472.08863-.43661.2659-.60403.17563-.16578.38901-.24949.63685-.24949s.46123.08371.63685.24949c.17727.16742.2659.36767.2659.5991,0,.23636-.08863.43825-.2659.60403-.17563.16742-.38901.25113-.63685.25113Zm-.72056,8.46621v-7.33366h1.428v7.33366h-1.428Z" fill="#33466e" stroke-width="0"/>
      <path d="m309.42162,124.81796c-.46451,0-.8847-.08699-1.26058-.26098-.37587-.17234-.67296-.42512-.88962-.75667-.2183-.32992-.32827-.73698-.32827-1.2179,0-.41363.08043-.75339.23964-1.02093s.37423-.47928.64342-.63521c.27083-.15593.57448-.27411.90768-.3529.33484-.08043.6746-.14116,1.02258-.18219.43825-.05088.79607-.09356,1.06853-.12639.27411-.03283.47272-.08863.59746-.16414.12474-.07714.18548-.20025.18548-.37259v-.03447c0-.41691-.11654-.73862-.34961-.96841-.23472-.22979-.58269-.34469-1.04391-.34469-.48092,0-.85844.10669-1.13419.31843s-.46615.44645-.5712.70415l-1.341-.3053c.15921-.44645.39229-.80591.69923-1.08167s.66147-.476,1.06197-.60238c.40214-.12474.82397-.18876,1.2655-.18876.29381,0,.60403.03447.93394.10341s.63849.19368.92573.37423c.28888.18219.52524.43989.70907.77637.18548.33648.27739.77145.27739,1.30653v4.86996h-1.39353v-1.00288h-.05745c-.09192.18548-.23143.36603-.41527.54494-.18548.17727-.42183.32663-.71236.44317-.28888.11818-.63685.17727-1.04063.17727Zm.31022-1.14568c.39557,0,.73369-.07879,1.01437-.23472.28232-.15593.49734-.35946.64506-.61387.14772-.25277.22159-.5236.22159-.81412v-.94543c-.05088.05088-.14772.09848-.29381.14116-.14444.04268-.30858.08043-.49405.10997-.18383.03119-.36438.05745-.53837.08207-.17563.02298-.32171.04268-.43989.05909-.27739.03447-.52852.09356-.75667.17727-.22815.08207-.4087.20025-.54494.35454-.13459.15429-.20189.35946-.20189.61387,0,.3529.12967.62044.39065.79935.26098.18055.59418.27083.99796.27083Z" fill="#33466e" stroke-width="0"/>
      <path d="m318.3671,117.32181v1.14568h-4.00659v-1.14568h4.00659Zm-2.93313-1.75791h1.428v6.93809c0,.27739.04103.48421.12474.62372.08207.13788.1904.23143.32171.28067.13295.04924.27575.07386.43168.07386.1149,0,.21502-.00657.30201-.02298.08535-.01641.15265-.02954.20025-.03775l.2577,1.17851c-.08207.03119-.20025.06401-.3529.09848-.15265.03283-.34469.05088-.57284.05417-.37587.00657-.72713-.06073-1.05048-.20025-.32499-.13952-.58761-.35618-.78786-.64998-.20189-.29216-.30201-.65983-.30201-1.103v-7.23353Z" fill="#33466e" stroke-width="0"/>
      <path d="m322.95474,124.80319c-.68774,0-1.28848-.15757-1.80059-.47272s-.90932-.75503-1.19328-1.32295c-.28396-.56627-.42512-1.22775-.42512-1.98606,0-.75996.14116-1.42635.42512-1.99591s.68117-1.01273,1.19328-1.32787,1.11285-.47272,1.80059-.47272,1.28684.15757,1.80059.47272c.51211.31514.90932.75831,1.19328,1.32787s.42512,1.23595.42512,1.99591c0,.75831-.14116,1.41979-.42512,1.98606-.28396.56792-.68117,1.0078-1.19328,1.32295-.51375.31514-1.11285.47272-1.80059.47272Zm.00492-1.1982c.44481,0,.81412-.11818,1.10793-.3529.29216-.23636.51047-.54986.65163-.94051.14116-.39229.21174-.82397.21174-1.29504,0-.46779-.07058-.89783-.21174-1.29176-.14116-.39229-.35946-.70907-.65163-.94707-.29381-.23964-.66312-.35782-1.10793-.35782-.44974,0-.82069.11818-1.11449.35782-.29545.238-.51375.55478-.65491.94707-.14116.39393-.21174.82397-.21174,1.29176,0,.47107.07058.90276.21174,1.29504.14116.39065.35946.70415.65491.94051.29381.23472.66476.3529,1.11449.3529Z" fill="#33466e" stroke-width="0"/>
    </g>
  </g>
</svg>