<?xml version="1.0" encoding="UTF-8"?>
<svg id="Livello_1" data-name="Livello 1" xmlns="http://www.w3.org/2000/svg" viewBox="0 0 116.78072 141.73228">
  <path d="m90.97134,46.6347c.15196-.14697.30118-.29895.44674-.45795,3.90828-4.26904,3.90828-11.19,0-15.45905-3.90736-4.26801-10.24352-4.26801-14.15177,0-.4074.44604-.76354.92603-1.08579,1.42401-6.70512-7.60901-12.67967-15.99799-17.78907-25.05499C34.17191,19.36371,13.91008,39.12476.00091,63.77972v77.953h116.78018V63.77972c-9.22367-4.67499-17.86688-10.44202-25.80975-17.14502Z" fill="#ff7232" stroke-width="0"/>
  <path d="m0,0v63.77905C13.90918,39.125,34.17101,19.36304,58.39054,7.08606c5.1094,9.05798,11.08395,17.44696,17.78907,25.05597.32227-.49799.67838-.97803,1.08579-1.42401,3.90828-4.26801,10.24444-4.26801,14.1518,0,3.90825,4.26898,3.90825,11.19,0,15.45801-.14556.159-.29481.31201-.44677.45898,7.94287,6.70203,16.58611,12.46899,25.81067,17.14404V0H0Z" fill="#89c3df" stroke-width="0"/>
  <path d="m0,63.77905C13.90918,39.125,34.17101,19.36304,58.39054,7.08606c5.1094,9.05798,11.08395,17.44696,17.78907,25.05597.32227-.49799.67838-.97803,1.08579-1.42401,3.90828-4.26801,10.24444-4.26801,14.1518,0,3.90825,4.26898,3.90825,11.19,0,15.45801-.14556.159-.29481.31201-.44677.45898,7.94287,6.70203,16.58611,12.46899,25.81067,17.14404" fill="none" stroke="#fff" stroke-linecap="square" stroke-miterlimit="10" stroke-width="1.5"/>
  <path d="m94.07369,70.91113c0,4.30304-5.7521,7.08606-9.73176,7.08606s-9.73084-2.78302-9.73176-7.08606" fill="none" stroke="#fff" stroke-miterlimit="10" stroke-width="1.5"/>
  <path d="m42.17138,70.91113c0,4.30304-5.7521,7.08606-9.73176,7.08606s-9.73084-2.78302-9.73176-7.08606" fill="none" stroke="#fff" stroke-miterlimit="10" stroke-width="1.5"/>
  <path d="m74.61045,112.0249c0,5.164-9.58712,8.50305-16.21899,8.50305-6.63282,0-16.21899-3.33905-16.21991-8.50305" fill="none" stroke="#fff" stroke-miterlimit="10" stroke-width="1.5"/>
</svg>