<?xml version="1.0" encoding="UTF-8"?>
<svg id="Livello_1" data-name="Livello 1" xmlns="http://www.w3.org/2000/svg" viewBox="0 0 139.53242 81.11719">
  <g>
    <path d="m0,31.54118c0-3.48535,2.77469-4.52195,5.86388-4.80667,2.71287-.26411,3.78-.39617,3.78-1.40223v-.06107c0-1.2801-.84348-2.02205-2.3167-2.02205-1.5549,0-2.48005.7618-2.77469,1.7984l-4.00365-.32518c.59998-2.84492,3.05865-4.6334,6.79819-4.6334,3.47543,0,6.62568,1.56482,6.62568,5.28375v10.52781h-4.10517v-2.1648h-.12213c-.7618,1.45338-2.25563,2.45944-4.56241,2.45944-2.97774,0-5.18299-1.56482-5.18299-4.65401Zm9.67441-1.2198v-1.65642c-.5183.34579-2.06327.56944-3.00827.7015-1.5236.21373-2.52967.81294-2.52967,2.03274,0,1.1885.95492,1.80832,2.28617,1.80832,1.89992,0,3.25177-1.24957,3.25177-2.88614Z" fill="#33466e" stroke-width="0"/>
    <path d="m17.92827,15.08918h4.32959v7.82487h.13206c.5786-1.27018,1.82893-2.82508,4.44028-2.82508,3.42429,0,6.32111,2.66249,6.32111,8.02792,0,5.22269-2.77469,8.03784-6.33104,8.03784-2.52051,0-3.83114-1.45338-4.43035-2.75409h-.19312v2.4999h-4.26853V15.08918Zm7.5203,17.62065c2.12358,0,3.28231-1.89,3.28231-4.61355,0-2.70294-1.13812-4.56241-3.28231-4.56241-2.10373,0-3.28231,1.77779-3.28231,4.56241s1.19919,4.61355,3.28231,4.61355Z" fill="#33466e" stroke-width="0"/>
    <path d="m36.28858,16.08532c0-1.19919,1.05645-2.18541,2.33731-2.18541,1.29002,0,2.34723.98622,2.34723,2.18541,0,1.20911-1.05721,2.19457-2.34723,2.19457-1.28086,0-2.33731-.98546-2.33731-2.19457Zm.16259,4.2067h4.32883v15.60852h-4.32883v-15.60852Z" fill="#33466e" stroke-width="0"/>
  </g>
  <g>
    <path d="m49.20332,35.90054h-4.32883V15.08918h4.32883v20.81136Z" fill="#ff7232" stroke-width="0"/>
    <path d="m53.22834,20.29202h4.32959v15.60852h-4.32959v-15.60852Zm2.77469-6.63561h4.00365l-3.09911,4.62348h-3.05942l2.15487-4.62348Z" fill="#ff7232" stroke-width="0"/>
  </g>
  <g>
    <path d="m69.68339,23.5438h-2.93652v7.56076c0,1.19842.59921,1.5236,1.4633,1.5236.40609,0,.86332-.10152,1.07705-.14198l.68089,3.22124c-.43662.14198-1.22972.36563-2.34723.40685-3.14033.13206-5.22345-1.38239-5.20284-4.44104v-8.12944h-2.13426v-3.25178h2.13426v-3.73954h4.32883v3.73954h2.93652v3.25178Z" fill="#33466e" stroke-width="0"/>
    <path d="m72.73288,16.08532c0-1.19919,1.05721-2.18541,2.33731-2.18541,1.29079,0,2.34723.98622,2.34723,2.18541,0,1.20911-1.05645,2.19457-2.34723,2.19457-1.2801,0-2.33731-.98546-2.33731-2.19457Zm.16259,4.2067h4.32959v15.60852h-4.32959v-15.60852Z" fill="#33466e" stroke-width="0"/>
    <path d="m80.46081,31.54118c0-3.48535,2.77469-4.52195,5.86388-4.80667,2.71287-.26411,3.78-.39617,3.78-1.40223v-.06107c0-1.2801-.84348-2.02205-2.3167-2.02205-1.5549,0-2.48005.7618-2.77469,1.7984l-4.00365-.32518c.59998-2.84492,3.05865-4.6334,6.79819-4.6334,3.47543,0,6.62568,1.56482,6.62568,5.28375v10.52781h-4.10517v-2.1648h-.12213c-.7618,1.45338-2.25563,2.45944-4.56241,2.45944-2.97774,0-5.18299-1.56482-5.18299-4.65401Zm9.67441-1.2198v-1.65642c-.5183.34579-2.06327.56944-3.00827.7015-1.5236.21373-2.52967.81294-2.52967,2.03274,0,1.1885.95492,1.80832,2.28617,1.80832,1.89992,0,3.25177-1.24957,3.25177-2.88614Z" fill="#33466e" stroke-width="0"/>
    <path d="m98.36542,20.29202h4.12578v2.75409h.18244c.65035-1.83962,2.24571-2.95713,4.34944-2.95713,2.14419,0,3.73954,1.14804,4.23723,2.95713h.16259c.64043-1.78848,2.41898-2.95713,4.70515-2.95713,2.90675,0,4.91812,1.93046,4.91812,5.31429v10.49728h-4.31814v-9.64388c0-1.73733-1.0366-2.60142-2.41898-2.60142-1.57474,0-2.4999,1.09767-2.4999,2.71363v9.53167h-4.19677v-9.73472c0-1.53505-.95492-2.51058-2.37776-2.51058-1.44269,0-2.54035,1.14881-2.54035,2.87622v9.36908h-4.32883v-15.60852Z" fill="#33466e" stroke-width="0"/>
    <path d="m124.16741,28.15735c0-4.83721,2.94721-8.06837,7.68213-8.06837,4.73568,0,7.68289,3.23117,7.68289,8.06837,0,4.80667-2.94721,8.04776-7.68289,8.04776-4.73492,0-7.68213-3.24109-7.68213-8.04776Zm10.96443-.03053c0-2.72355-1.11751-4.73568-3.2617-4.73568-2.18464,0-3.30292,2.01213-3.30292,4.73568s1.11827,4.725,3.30292,4.725c2.14419,0,3.2617-2.00145,3.2617-4.725Z" fill="#33466e" stroke-width="0"/>
  </g>
  <g>
    <path d="m17.17487,60.07895c0-3.57695,3.16018-4.21739,6.05624-4.59371,2.84568-.36563,4.02426-.26411,4.02426-1.42208v-.08168c0-2.00145-1.08774-3.1701-3.29223-3.1701-2.28693,0-3.5365,1.21903-4.06472,2.35716l-2.27624-.81294c1.21903-2.84492,3.90213-3.65787,6.25928-3.65787,1.99152,0,5.77228.56868,5.77228,5.52802v10.28355h-2.39837v-2.11365h-.12213c-.48777,1.01599-1.91061,2.47929-4.6334,2.47929-2.96782,0-5.32497-1.74726-5.32497-4.79599Zm10.0805-1.2198v-2.19457c-.40685.48777-3.12964.77172-4.14639.89386-1.86939.24426-3.53573.81294-3.53573,2.64264,0,1.66634,1.38162,2.51974,3.29223,2.51974,2.84492,0,4.3899-1.91061,4.3899-3.86167Z" fill="#33466e" stroke-width="0"/>
    <path d="m44.10429,48.90078h2.39837v15.60852h-2.39837v-2.64188h-.16259c-.73127,1.58543-2.27624,2.84492-4.6334,2.84492-2.9266,0-5.04025-1.90985-5.04025-5.89365v-9.91792h2.39837v9.75533c0,2.27624,1.42208,3.73954,3.41436,3.73954,1.78848,0,4.0235-1.34117,4.0235-4.26776v-9.2271Z" fill="#33466e" stroke-width="0"/>
    <path d="m57.90525,50.93275h-3.33269v9.10497c0,2.03274,1.01599,2.35792,2.07243,2.35792.52899,0,.85416-.08168,1.05721-.12213l.48777,2.15487c-.32518.12137-.89462.28396-1.78848.28396-2.03274,0-4.22731-1.30071-4.22731-4.02426v-9.75533h-2.35792v-2.03198h2.35792v-3.73954h2.39837v3.73954h3.33269v2.03198Z" fill="#33466e" stroke-width="0"/>
    <path d="m61.17534,44.67347c0-.89462.77249-1.62589,1.7068-1.62589.93508,0,1.70756.73127,1.70756,1.62589s-.77249,1.62589-1.70756,1.62589c-.93431,0-1.7068-.73127-1.7068-1.62589Zm.48777,4.22731h2.39837v15.60852h-2.39837v-15.60852Z" fill="#33466e" stroke-width="0"/>
    <path d="m77.58001,53.00595c-.41678-1.07706-1.2801-2.23502-3.37391-2.23502-1.90985,0-3.33269.97553-3.33269,2.3167,0,1.19919.83279,1.81901,2.68233,2.27624l2.31746.56868c2.78385.68089,4.14563,2.05259,4.14563,4.22731,0,2.69302-2.46936,4.67462-6.0967,4.67462-3.19147,0-5.37611-1.41216-5.93487-4.06472l2.27624-.56868c.4267,1.67627,1.65642,2.51974,3.61741,2.51974,2.23579,0,3.65863-1.09767,3.65863-2.43883,0-1.07706-.74195-1.82893-2.3167-2.19533l-2.60142-.60914c-2.86629-.67096-4.14639-2.11365-4.14639-4.26853,0-2.64188,2.43883-4.51127,5.73106-4.51127,3.08919,0,4.77614,1.48315,5.52802,3.69909l-2.15411.60914Z" fill="#33466e" stroke-width="0"/>
    <path d="m83.94693,48.90078h2.31746v2.43883h.20305c.65035-1.66634,2.15411-2.64188,4.18685-2.64188,2.05259,0,3.41436.97553,4.18609,2.64188h.16259c.80302-1.61596,2.43883-2.64188,4.67462-2.64188,2.78462,0,4.75553,1.69688,4.75553,5.36543v10.44614h-2.39761v-10.44614c0-2.30678-1.4633-3.21132-3.17086-3.21132-2.19457,0-3.45482,1.48391-3.45482,3.49604v10.16142h-2.43883v-10.6904c0-1.77779-1.27018-2.96705-3.08919-2.96705-1.87015,0-3.5365,1.61596-3.5365,3.90213v9.75533h-2.39837v-15.60852Z" fill="#33466e" stroke-width="0"/>
    <path d="m108.31386,56.78595c0-4.87766,2.84568-8.08822,7.07299-8.08822s7.07223,3.21056,7.07223,8.08822c0,4.83721-2.84492,8.04853-7.07223,8.04853s-7.07299-3.21132-7.07299-8.04853Zm11.74761,0c0-3.12964-1.4633-5.93411-4.67462-5.93411s-4.67462,2.80447-4.67462,5.93411c0,3.13041,1.4633,5.89442,4.67462,5.89442s4.67462-2.76401,4.67462-5.89442Z" fill="#33466e" stroke-width="0"/>
  </g>
  <path d="m45.52513,6.05078h-.93164L46.68724.23242h1.01367l2.09375,5.81836h-.93164l-1.64453-4.76172h-.0459l-1.64746,4.76172Zm.15625-2.27832h3.02246v.73828h-3.02246v-.73828Z" fill="#33466e" stroke-width="0"/>
  <path d="m53.80052,2.75293l-.76953.13574c-.03223-.09863-.08301-.19238-.15234-.28125s-.16211-.16211-.2793-.21875c-.11816-.05664-.26465-.08496-.44043-.08496-.24121,0-.44141.05371-.60254.16016-.16113.10742-.24121.24512-.24121.41406,0,.14551.05371.2627.16113.35156.1084.08887.28223.16211.52344.21875l.69336.15918c.40137.09277.7002.23633.89746.42871.19727.19336.29492.44434.29492.75293,0,.26172-.0752.49414-.22559.69824-.15039.20312-.35938.3623-.62793.47852-.26758.11523-.57812.17285-.93066.17285-.48828,0-.88672-.10449-1.19531-.31348-.30859-.20996-.49805-.50781-.56836-.89355l.82129-.125c.05078.21387.15625.375.31543.48438.1582.1084.36621.16309.62207.16309.27832,0,.50098-.05859.66699-.1748.16699-.11621.25-.25879.25-.42773,0-.13574-.05078-.25098-.15137-.34375-.10156-.09277-.25684-.16211-.46484-.20996l-.73828-.16211c-.40723-.09277-.70801-.24023-.90234-.44336-.19434-.20215-.29102-.45898-.29102-.76953,0-.25781.07227-.48242.21582-.67578s.34277-.34473.59668-.45312c.25391-.10938.54395-.16406.87207-.16406.47168,0,.84277.10254,1.11328.30566.27148.2041.4502.47559.53711.81738Z" fill="#33466e" stroke-width="0"/>
  <path d="m58.08763,2.75293l-.76953.13574c-.03223-.09863-.08301-.19238-.15234-.28125s-.16211-.16211-.2793-.21875c-.11816-.05664-.26465-.08496-.44043-.08496-.24121,0-.44141.05371-.60254.16016-.16113.10742-.24121.24512-.24121.41406,0,.14551.05371.2627.16113.35156.1084.08887.28223.16211.52344.21875l.69336.15918c.40137.09277.7002.23633.89746.42871.19727.19336.29492.44434.29492.75293,0,.26172-.0752.49414-.22559.69824-.15039.20312-.35938.3623-.62793.47852-.26758.11523-.57812.17285-.93066.17285-.48828,0-.88672-.10449-1.19531-.31348-.30859-.20996-.49805-.50781-.56836-.89355l.82129-.125c.05078.21387.15625.375.31543.48438.1582.1084.36621.16309.62207.16309.27832,0,.50098-.05859.66699-.1748.16699-.11621.25-.25879.25-.42773,0-.13574-.05078-.25098-.15137-.34375-.10156-.09277-.25684-.16211-.46484-.20996l-.73828-.16211c-.40723-.09277-.70801-.24023-.90234-.44336-.19434-.20215-.29102-.45898-.29102-.76953,0-.25781.07227-.48242.21582-.67578s.34277-.34473.59668-.45312c.25391-.10938.54395-.16406.87207-.16406.47168,0,.84277.10254,1.11328.30566.27148.2041.4502.47559.53711.81738Z" fill="#33466e" stroke-width="0"/>
  <path d="m60.94212,6.13867c-.40918,0-.7666-.09375-1.07129-.28125s-.54102-.44922-.70996-.78711c-.16895-.33691-.25293-.73047-.25293-1.18164,0-.45215.08398-.84863.25293-1.1875s.40527-.60254.70996-.79004.66211-.28125,1.07129-.28125.76562.09375,1.07129.28125c.30469.1875.54102.45117.70996.79004s.25293.73535.25293,1.1875c0,.45117-.08398.84473-.25293,1.18164-.16895.33789-.40527.59961-.70996.78711-.30566.1875-.66211.28125-1.07129.28125Zm.00293-.71289c.26465,0,.48438-.07031.65918-.20996.17383-.14062.30371-.32715.3877-.55957.08398-.2334.12598-.49023.12598-.77051,0-.27832-.04199-.53418-.12598-.76855-.08398-.2334-.21387-.42188-.3877-.56348-.1748-.14258-.39453-.21289-.65918-.21289-.26758,0-.48828.07031-.66309.21289-.17578.1416-.30566.33008-.38965.56348-.08398.23438-.12598.49023-.12598.76855,0,.28027.04199.53711.12598.77051.08398.23242.21387.41895.38965.55957.1748.13965.39551.20996.66309.20996Z" fill="#33466e" stroke-width="0"/>
  <path d="m65.76048,6.13867c-.42285,0-.78516-.0957-1.08984-.28809-.30371-.19238-.53711-.45801-.7002-.79688s-.24414-.72754-.24414-1.16504c0-.44336.08301-.83496.25-1.1748s.40137-.60547.7041-.79688c.30371-.19141.66016-.28711,1.07129-.28711.33203,0,.62695.06152.88672.18359s.46875.29297.62891.5127.25586.47656.28613.77051h-.82715c-.0459-.20508-.14941-.38086-.31152-.5293-.16113-.14746-.37793-.2207-.64844-.2207-.2373,0-.44434.06152-.62109.18555s-.31445.2998-.41309.52832-.14746.49805-.14746.80859c0,.31836.04785.59277.14453.82324.09668.23145.2334.41016.41016.53711.17773.12695.38574.19043.62695.19043.16113,0,.30664-.0293.43848-.08887.13184-.06055.24219-.14551.33301-.25781.08984-.11133.15234-.24609.18848-.40332h.82715c-.03027.28223-.12305.53418-.27637.75586s-.3584.39551-.61426.52246c-.25684.12695-.55762.19043-.90234.19043Z" fill="#33466e" stroke-width="0"/>
  <path d="m68.89427,1.01367c-.14746,0-.27441-.0498-.37891-.14941-.10547-.09863-.1582-.21777-.1582-.35645,0-.13965.05273-.25977.1582-.35938.10449-.09863.23145-.14844.37891-.14844s.27441.0498.37891.14844c.10547.09961.1582.21875.1582.35645,0,.14062-.05273.26074-.1582.35938-.10449.09961-.23145.14941-.37891.14941Zm-.42871,5.03711V1.6875h.84961v4.36328h-.84961Z" fill="#33466e" stroke-width="0"/>
  <path d="m71.7263,6.14746c-.27637,0-.52637-.05176-.75-.15527-.22363-.10254-.40039-.25293-.5293-.4502-.12988-.19629-.19531-.43848-.19531-.72461,0-.24609.04785-.44824.14258-.60742s.22266-.28516.38281-.37793c.16113-.09277.3418-.16309.54004-.20996.19922-.04785.40137-.08398.6084-.1084.26074-.03027.47363-.05566.63574-.0752.16309-.01953.28125-.05273.35547-.09766.07422-.0459.11035-.11914.11035-.22168v-.02051c0-.24805-.06934-.43945-.20801-.57617-.13965-.13672-.34668-.20508-.62109-.20508-.28613,0-.51074.06348-.6748.18945s-.27734.26562-.33984.41895l-.79785-.18164c.09473-.26562.2334-.47949.41602-.64355s.39355-.2832.63184-.3584c.23926-.07422.49023-.1123.75293-.1123.1748,0,.35938.02051.55566.06152s.37988.11523.55078.22266c.17188.1084.3125.26172.42188.46191.11035.2002.16504.45898.16504.77734v2.89746h-.8291v-.59668h-.03418c-.05469.11035-.1377.21777-.24707.32422-.11035.10547-.25098.19434-.42383.26367-.17188.07031-.37891.10547-.61914.10547Zm.18457-.68164c.23535,0,.43652-.04688.60352-.13965.16797-.09277.2959-.21387.38379-.36523.08789-.15039.13184-.31152.13184-.48438v-.5625c-.03027.03027-.08789.05859-.1748.08398-.08594.02539-.18359.04785-.29395.06543-.10938.01855-.2168.03418-.32031.04883-.10449.01367-.19141.02539-.26172.03516-.16504.02051-.31445.05566-.4502.10547-.13574.04883-.24316.11914-.32422.21094-.08008.0918-.12012.21387-.12012.36523,0,.20996.07715.36914.23242.47559.15527.10742.35352.16113.59375.16113Z" fill="#33466e" stroke-width="0"/>
  <path d="m74.91966,6.05078v-.58203l2.36328-3.00293v-.04004h-2.28711v-.73828h3.34668v.61914l-2.27246,2.96582v.04004h2.35254v.73828h-3.50293Z" fill="#33466e" stroke-width="0"/>
  <path d="m79.8513,1.01367c-.14746,0-.27441-.0498-.37891-.14941-.10547-.09863-.1582-.21777-.1582-.35645,0-.13965.05273-.25977.1582-.35938.10449-.09863.23145-.14844.37891-.14844s.27441.0498.37891.14844c.10547.09961.1582.21875.1582.35645,0,.14062-.05273.26074-.1582.35938-.10449.09961-.23145.14941-.37891.14941Zm-.42871,5.03711V1.6875h.84961v4.36328h-.84961Z" fill="#33466e" stroke-width="0"/>
  <path d="m83.25169,6.13867c-.40918,0-.7666-.09375-1.07129-.28125s-.54102-.44922-.70996-.78711c-.16895-.33691-.25293-.73047-.25293-1.18164,0-.45215.08398-.84863.25293-1.1875s.40527-.60254.70996-.79004.66211-.28125,1.07129-.28125.76562.09375,1.07129.28125c.30469.1875.54102.45117.70996.79004s.25293.73535.25293,1.1875c0,.45117-.08398.84473-.25293,1.18164-.16895.33789-.40527.59961-.70996.78711-.30566.1875-.66211.28125-1.07129.28125Zm.00293-.71289c.26465,0,.48438-.07031.65918-.20996.17383-.14062.30371-.32715.3877-.55957.08398-.2334.12598-.49023.12598-.77051,0-.27832-.04199-.53418-.12598-.76855-.08398-.2334-.21387-.42188-.3877-.56348-.1748-.14258-.39453-.21289-.65918-.21289-.26758,0-.48828.07031-.66309.21289-.17578.1416-.30566.33008-.38965.56348-.08398.23438-.12598.49023-.12598.76855,0,.28027.04199.53711.12598.77051.08398.23242.21387.41895.38965.55957.1748.13965.39551.20996.66309.20996Z" fill="#33466e" stroke-width="0"/>
  <path d="m87.08177,3.45996v2.59082h-.84961V1.6875h.81543v.70996h.05371c.10059-.23145.25781-.41699.47266-.55664.21484-.14062.48633-.21094.81445-.21094.29688,0,.55762.0625.78125.18652s.39648.30859.51953.55273.18457.5459.18457.90625v2.77539h-.84961v-2.67285c0-.31641-.08203-.56445-.24707-.74316-.16406-.17871-.39062-.26855-.67871-.26855-.19727,0-.37207.04297-.52441.12793s-.27246.20996-.36035.37305c-.08789.16406-.13184.36133-.13184.59277Z" fill="#33466e" stroke-width="0"/>
  <path d="m92.89134,6.13867c-.43066,0-.7998-.0918-1.10938-.27637-.31055-.18555-.54883-.44531-.7168-.78125-.16699-.33691-.25098-.73145-.25098-1.18359,0-.44727.08398-.84082.25098-1.18164.16797-.34082.40332-.60742.70508-.79883s.65527-.28711,1.06055-.28711c.24707,0,.48535.04102.7168.12305.23047.08105.43848.20898.62207.38281.18359.1748.32812.40039.43457.67773.10547.27734.15918.61426.15918,1.00977v.30176h-3.46875v-.63672h2.63574c0-.22363-.04492-.42188-.13574-.59473-.09082-.17383-.21875-.31055-.38281-.41113-.16309-.10059-.35547-.15039-.5752-.15039-.23828,0-.44629.05859-.62305.1748-.17773.11621-.31348.26758-.40918.4541s-.14355.38867-.14355.60645v.49805c0,.29102.05176.53906.1543.74414.10352.2041.24805.36035.43359.4668.18555.10742.40234.16113.65039.16113.16113,0,.30762-.02344.44043-.07031.13281-.0459.24707-.11523.34375-.20801s.1709-.20801.22168-.34375l.80371.14453c-.06445.23633-.17871.44336-.34473.62109-.16602.17676-.37305.31348-.62207.41113s-.5332.14648-.85059.14648Z" fill="#33466e" stroke-width="0"/>
  <path d="m16.91185,76.48047c0,.62109-.11426,1.15527-.34082,1.60059-.22754.44629-.53906.78906-.93359,1.02832-.39453.24023-.84277.35938-1.34473.35938-.50391,0-.95312-.11914-1.34863-.35938-.39453-.23926-.70605-.58203-.93262-1.0293-.22754-.44727-.34082-.98047-.34082-1.59961,0-.62109.11328-1.1543.34082-1.60059.22656-.44629.53809-.78906.93262-1.02832.39551-.24023.84473-.35938,1.34863-.35938.50195,0,.9502.11914,1.34473.35938.39453.23926.70605.58203.93359,1.02832.22656.44629.34082.97949.34082,1.60059Zm-.86914,0c0-.47363-.07617-.87207-.22949-1.19727-.15234-.3252-.36035-.57129-.625-.73828-.26367-.16797-.5625-.25195-.89551-.25195-.33594,0-.63477.08398-.89844.25195-.2627.16699-.4707.41309-.62305.73828s-.22852.72363-.22852,1.19727.07617.87305.22852,1.19727c.15234.3252.36035.57129.62305.73926.26367.16699.5625.25098.89844.25098.33301,0,.63184-.08398.89551-.25098.26465-.16797.47266-.41406.625-.73926.15332-.32422.22949-.72363.22949-1.19727Z" fill="#33466e" stroke-width="0"/>
  <path d="m17.93431,79.38965v-4.36328h.82031v.69238h.0459c.0791-.23438.21973-.41992.42188-.55469.20215-.13574.43066-.20312.68652-.20312.05273,0,.11523.00195.18848.00586.07324.00293.12988.00781.17188.01367v.8125c-.03418-.00977-.09473-.02051-.18164-.03223-.08691-.0127-.1748-.01855-.26172-.01855-.2002,0-.37891.04199-.53516.12598s-.28027.20117-.37109.34961-.13574.31738-.13574.50684v2.66504h-.84961Z" fill="#33466e" stroke-width="0"/>
  <path d="m22.67845,81.11719c-.34668,0-.64453-.0459-.89355-.13672s-.45215-.21094-.60938-.36035c-.15723-.15039-.27441-.31348-.35156-.49219l.72949-.30078c.05176.08301.12012.17188.20605.26562s.2041.17383.35254.24023.33984.09961.5752.09961c.32227,0,.58789-.07812.79785-.23438.21094-.15625.31543-.40527.31543-.74609v-.8584h-.05371c-.05078.09277-.125.19629-.21973.31055-.0957.11328-.22754.21191-.39355.29492-.16699.08301-.38379.125-.65137.125-.34473,0-.6543-.08105-.92969-.24316-.27539-.16113-.49316-.40137-.65332-.71875-.16016-.31641-.24023-.70703-.24023-1.17188,0-.46387.0791-.86133.2373-1.19238.1582-.33203.375-.58594.65137-.76367.27734-.17676.58984-.26562.94043-.26562.27148,0,.49023.0459.65625.13574.16699.08984.29688.19434.39062.31348s.16602.22461.21777.31543h.0625v-.70703h.83203v4.45996c0,.375-.08691.68262-.26074.92285-.1748.24121-.41016.41895-.70605.53418-.29688.11621-.63086.17383-1.00195.17383Zm-.00879-2.49707c.24512,0,.45215-.05762.62109-.17188.16992-.11523.29883-.2793.38672-.49512.08789-.21484.13184-.47266.13184-.77344,0-.29395-.04395-.55273-.13086-.77539-.08691-.22363-.21484-.39844-.38379-.52441-.16797-.12598-.37598-.18945-.625-.18945-.25488,0-.46875.06641-.63867.19824-.1709.13086-.29883.30957-.38477.53516-.08691.22559-.12988.47754-.12988.75586,0,.28613.04395.53711.13086.75293s.2168.38379.3877.50488c.17188.12207.38379.18262.63477.18262Z" fill="#33466e" stroke-width="0"/>
  <path d="m27.05638,79.48633c-.27637,0-.52637-.05176-.75-.15527-.22363-.10254-.40039-.25293-.5293-.4502-.12988-.19629-.19531-.43848-.19531-.72461,0-.24609.04785-.44824.14258-.60742s.22266-.28516.38281-.37793c.16113-.09277.3418-.16309.54004-.20996.19922-.04785.40137-.08398.6084-.1084.26074-.03027.47363-.05566.63574-.0752.16309-.01953.28125-.05273.35547-.09766.07422-.0459.11035-.11914.11035-.22168v-.02051c0-.24805-.06934-.43945-.20801-.57617-.13965-.13672-.34668-.20508-.62109-.20508-.28613,0-.51074.06348-.6748.18945s-.27734.26562-.33984.41895l-.79785-.18164c.09473-.26562.2334-.47949.41602-.64355s.39355-.2832.63184-.3584c.23926-.07422.49023-.1123.75293-.1123.1748,0,.35938.02051.55566.06152s.37988.11523.55078.22266c.17188.1084.3125.26172.42188.46191.11035.2002.16504.45898.16504.77734v2.89746h-.8291v-.59668h-.03418c-.05469.11035-.1377.21777-.24707.32422-.11035.10547-.25098.19434-.42383.26367-.17188.07031-.37891.10547-.61914.10547Zm.18457-.68164c.23535,0,.43652-.04688.60352-.13965.16797-.09277.2959-.21387.38379-.36523.08789-.15039.13184-.31152.13184-.48438v-.5625c-.03027.03027-.08789.05859-.1748.08398-.08594.02539-.18359.04785-.29395.06543-.10938.01855-.2168.03418-.32031.04883-.10449.01367-.19141.02539-.26172.03516-.16504.02051-.31445.05566-.4502.10547-.13574.04883-.24316.11914-.32422.21094-.08008.0918-.12012.21387-.12012.36523,0,.20996.07715.36914.23242.47559.15527.10742.35352.16113.59375.16113Z" fill="#33466e" stroke-width="0"/>
  <path d="m31.19017,76.79883v2.59082h-.84961v-4.36328h.81543v.70996h.05371c.10059-.23145.25781-.41699.47266-.55664.21484-.14062.48633-.21094.81445-.21094.29688,0,.55762.0625.78125.18652s.39648.30859.51953.55273.18457.5459.18457.90625v2.77539h-.84961v-2.67285c0-.31641-.08203-.56445-.24707-.74316-.16406-.17871-.39062-.26855-.67871-.26855-.19727,0-.37207.04297-.52441.12793s-.27246.20996-.36035.37305c-.08789.16406-.13184.36133-.13184.59277Z" fill="#33466e" stroke-width="0"/>
  <path d="m35.54759,74.35254c-.14746,0-.27441-.0498-.37891-.14941-.10547-.09863-.1582-.21777-.1582-.35645,0-.13965.05273-.25977.1582-.35938.10449-.09863.23145-.14844.37891-.14844s.27441.0498.37891.14844c.10547.09961.1582.21875.1582.35645,0,.14062-.05273.26074-.1582.35938-.10449.09961-.23145.14941-.37891.14941Zm-.42871,5.03711v-4.36328h.84961v4.36328h-.84961Z" fill="#33466e" stroke-width="0"/>
  <path d="m37.02025,79.38965v-.58203l2.36328-3.00293v-.04004h-2.28711v-.73828h3.34668v.61914l-2.27246,2.96582v.04004h2.35254v.73828h-3.50293Z" fill="#33466e" stroke-width="0"/>
  <path d="m41.43138,79.38965v-.58203l2.36328-3.00293v-.04004h-2.28711v-.73828h3.34668v.61914l-2.27246,2.96582v.04004h2.35254v.73828h-3.50293Z" fill="#33466e" stroke-width="0"/>
  <path d="m47.20384,79.48633c-.27637,0-.52637-.05176-.75-.15527-.22363-.10254-.40039-.25293-.5293-.4502-.12988-.19629-.19531-.43848-.19531-.72461,0-.24609.04785-.44824.14258-.60742s.22266-.28516.38281-.37793c.16113-.09277.3418-.16309.54004-.20996.19922-.04785.40137-.08398.6084-.1084.26074-.03027.47363-.05566.63574-.0752.16309-.01953.28125-.05273.35547-.09766.07422-.0459.11035-.11914.11035-.22168v-.02051c0-.24805-.06934-.43945-.20801-.57617-.13965-.13672-.34668-.20508-.62109-.20508-.28613,0-.51074.06348-.6748.18945s-.27734.26562-.33984.41895l-.79785-.18164c.09473-.26562.2334-.47949.41602-.64355s.39355-.2832.63184-.3584c.23926-.07422.49023-.1123.75293-.1123.1748,0,.35938.02051.55566.06152s.37988.11523.55078.22266c.17188.1084.3125.26172.42188.46191.11035.2002.16504.45898.16504.77734v2.89746h-.8291v-.59668h-.03418c-.05469.11035-.1377.21777-.24707.32422-.11035.10547-.25098.19434-.42383.26367-.17188.07031-.37891.10547-.61914.10547Zm.18457-.68164c.23535,0,.43652-.04688.60352-.13965.16797-.09277.2959-.21387.38379-.36523.08789-.15039.13184-.31152.13184-.48438v-.5625c-.03027.03027-.08789.05859-.1748.08398-.08594.02539-.18359.04785-.29395.06543-.10938.01855-.2168.03418-.32031.04883-.10449.01367-.19141.02539-.26172.03516-.16504.02051-.31445.05566-.4502.10547-.13574.04883-.24316.11914-.32422.21094-.08008.0918-.12012.21387-.12012.36523,0,.20996.07715.36914.23242.47559.15527.10742.35352.16113.59375.16113Z" fill="#33466e" stroke-width="0"/>
  <path d="m50.3972,79.38965v-.58203l2.36328-3.00293v-.04004h-2.28711v-.73828h3.34668v.61914l-2.27246,2.96582v.04004h2.35254v.73828h-3.50293Z" fill="#33466e" stroke-width="0"/>
  <path d="m55.32884,74.35254c-.14746,0-.27441-.0498-.37891-.14941-.10547-.09863-.1582-.21777-.1582-.35645,0-.13965.05273-.25977.1582-.35938.10449-.09863.23145-.14844.37891-.14844s.27441.0498.37891.14844c.10547.09961.1582.21875.1582.35645,0,.14062-.05273.26074-.1582.35938-.10449.09961-.23145.14941-.37891.14941Zm-.42871,5.03711v-4.36328h.84961v4.36328h-.84961Z" fill="#33466e" stroke-width="0"/>
  <path d="m58.72923,79.47754c-.40918,0-.7666-.09375-1.07129-.28125s-.54102-.44922-.70996-.78711c-.16895-.33691-.25293-.73047-.25293-1.18164,0-.45215.08398-.84863.25293-1.1875s.40527-.60254.70996-.79004.66211-.28125,1.07129-.28125.76562.09375,1.07129.28125c.30469.1875.54102.45117.70996.79004s.25293.73535.25293,1.1875c0,.45117-.08398.84473-.25293,1.18164-.16895.33789-.40527.59961-.70996.78711-.30566.1875-.66211.28125-1.07129.28125Zm.00293-.71289c.26465,0,.48438-.07031.65918-.20996.17383-.14062.30371-.32715.3877-.55957.08398-.2334.12598-.49023.12598-.77051,0-.27832-.04199-.53418-.12598-.76855-.08398-.2334-.21387-.42188-.3877-.56348-.1748-.14258-.39453-.21289-.65918-.21289-.26758,0-.48828.07031-.66309.21289-.17578.1416-.30566.33008-.38965.56348-.08398.23438-.12598.49023-.12598.76855,0,.28027.04199.53711.12598.77051.08398.23242.21387.41895.38965.55957.1748.13965.39551.20996.66309.20996Z" fill="#33466e" stroke-width="0"/>
  <path d="m62.55931,76.79883v2.59082h-.84961v-4.36328h.81543v.70996h.05371c.10059-.23145.25781-.41699.47266-.55664.21484-.14062.48633-.21094.81445-.21094.29688,0,.55762.0625.78125.18652s.39648.30859.51953.55273.18457.5459.18457.90625v2.77539h-.84961v-2.67285c0-.31641-.08203-.56445-.24707-.74316-.16406-.17871-.39062-.26855-.67871-.26855-.19727,0-.37207.04297-.52441.12793s-.27246.20996-.36035.37305c-.08789.16406-.13184.36133-.13184.59277Z" fill="#33466e" stroke-width="0"/>
  <path d="m68.36888,79.47754c-.43066,0-.7998-.0918-1.10938-.27637-.31055-.18555-.54883-.44531-.7168-.78125-.16699-.33691-.25098-.73145-.25098-1.18359,0-.44727.08398-.84082.25098-1.18164.16797-.34082.40332-.60742.70508-.79883s.65527-.28711,1.06055-.28711c.24707,0,.48535.04102.7168.12305.23047.08105.43848.20898.62207.38281.18359.1748.32812.40039.43457.67773.10547.27734.15918.61426.15918,1.00977v.30176h-3.46875v-.63672h2.63574c0-.22363-.04492-.42188-.13574-.59473-.09082-.17383-.21875-.31055-.38281-.41113-.16309-.10059-.35547-.15039-.5752-.15039-.23828,0-.44629.05859-.62305.1748-.17773.11621-.31348.26758-.40918.4541s-.14355.38867-.14355.60645v.49805c0,.29102.05176.53906.1543.74414.10352.2041.24805.36035.43359.4668.18555.10742.40234.16113.65039.16113.16113,0,.30762-.02344.44043-.07031.13281-.0459.24707-.11523.34375-.20801s.1709-.20801.22168-.34375l.80371.14453c-.06445.23633-.17871.44336-.34473.62109-.16602.17676-.37305.31348-.62207.41113s-.5332.14648-.85059.14648Z" fill="#33466e" stroke-width="0"/>
  <path d="m74.93919,79.47461c-.35156,0-.66602-.08984-.94141-.27148-.27539-.18066-.49121-.43848-.64746-.77539-.15625-.33594-.23438-.74023-.23438-1.21094,0-.47168.0791-.875.2373-1.21094.1582-.33496.375-.5918.65137-.76953.27734-.17773.58984-.26758.94043-.26758.27148,0,.48926.0459.65527.13574s.29395.19434.38574.31348c.09277.11914.16406.22461.21484.31543h.05078v-2.16211h.84961v5.81836h-.8291v-.67871h-.07129c-.05078.09277-.12402.19824-.21973.31836-.0957.11914-.22754.22266-.39355.3125-.16699.08887-.38281.13281-.64844.13281Zm.1875-.72461c.24512,0,.45215-.06445.62109-.19434.16992-.12988.29883-.30957.38672-.54102s.13184-.5.13184-.80664c0-.30273-.04395-.56836-.13086-.7959-.08691-.22656-.21484-.4043-.38379-.53125-.16797-.12695-.37598-.19043-.625-.19043-.25488,0-.46875.06641-.63867.19922-.1709.13281-.29883.31348-.38477.54297-.08691.22852-.12988.4873-.12988.77539,0,.29102.04395.55371.13086.78711.08691.23242.2168.41699.3877.55176.17188.13574.38379.20312.63477.20312Z" fill="#33466e" stroke-width="0"/>
  <path d="m78.74095,74.35254c-.14746,0-.27441-.0498-.37891-.14941-.10547-.09863-.1582-.21777-.1582-.35645,0-.13965.05273-.25977.1582-.35938.10449-.09863.23145-.14844.37891-.14844s.27441.0498.37891.14844c.10547.09961.1582.21875.1582.35645,0,.14062-.05273.26074-.1582.35938-.10449.09961-.23145.14941-.37891.14941Zm-.42871,5.03711v-4.36328h.84961v4.36328h-.84961Z" fill="#33466e" stroke-width="0"/>
  <path d="m82.99876,73.57129l1.61914,4.73926h.06543l1.62012-4.73926h.94824l-2.09375,5.81836h-1.01367l-2.09375-5.81836h.94824Z" fill="#33466e" stroke-width="0"/>
  <path d="m89.42259,79.47754c-.40918,0-.7666-.09375-1.07129-.28125s-.54102-.44922-.70996-.78711c-.16895-.33691-.25293-.73047-.25293-1.18164,0-.45215.08398-.84863.25293-1.1875s.40527-.60254.70996-.79004.66211-.28125,1.07129-.28125.76562.09375,1.07129.28125c.30469.1875.54102.45117.70996.79004s.25293.73535.25293,1.1875c0,.45117-.08398.84473-.25293,1.18164-.16895.33789-.40527.59961-.70996.78711-.30566.1875-.66211.28125-1.07129.28125Zm.00293-.71289c.26465,0,.48438-.07031.65918-.20996.17383-.14062.30371-.32715.3877-.55957.08398-.2334.12598-.49023.12598-.77051,0-.27832-.04199-.53418-.12598-.76855-.08398-.2334-.21387-.42188-.3877-.56348-.1748-.14258-.39453-.21289-.65918-.21289-.26758,0-.48828.07031-.66309.21289-.17578.1416-.30566.33008-.38965.56348-.08398.23438-.12598.49023-.12598.76855,0,.28027.04199.53711.12598.77051.08398.23242.21387.41895.38965.55957.1748.13965.39551.20996.66309.20996Z" fill="#33466e" stroke-width="0"/>
  <path d="m93.25169,73.57129v5.81836h-.84961v-5.81836h.84961Z" fill="#33466e" stroke-width="0"/>
  <path d="m96.23216,79.47754c-.40918,0-.7666-.09375-1.07129-.28125s-.54102-.44922-.70996-.78711c-.16895-.33691-.25293-.73047-.25293-1.18164,0-.45215.08398-.84863.25293-1.1875s.40527-.60254.70996-.79004.66211-.28125,1.07129-.28125.76562.09375,1.07129.28125c.30469.1875.54102.45117.70996.79004s.25293.73535.25293,1.1875c0,.45117-.08398.84473-.25293,1.18164-.16895.33789-.40527.59961-.70996.78711-.30566.1875-.66211.28125-1.07129.28125Zm.00293-.71289c.26465,0,.48438-.07031.65918-.20996.17383-.14062.30371-.32715.3877-.55957.08398-.2334.12598-.49023.12598-.77051,0-.27832-.04199-.53418-.12598-.76855-.08398-.2334-.21387-.42188-.3877-.56348-.1748-.14258-.39453-.21289-.65918-.21289-.26758,0-.48828.07031-.66309.21289-.17578.1416-.30566.33008-.38965.56348-.08398.23438-.12598.49023-.12598.76855,0,.28027.04199.53711.12598.77051.08398.23242.21387.41895.38965.55957.1748.13965.39551.20996.66309.20996Z" fill="#33466e" stroke-width="0"/>
  <path d="m100.06126,76.79883v2.59082h-.84961v-4.36328h.81543v.70996h.05371c.10059-.23145.25781-.41699.47266-.55664.21484-.14062.48633-.21094.81445-.21094.29688,0,.55762.0625.78125.18652s.39648.30859.51953.55273.18457.5459.18457.90625v2.77539h-.84961v-2.67285c0-.31641-.08203-.56445-.24707-.74316-.16406-.17871-.39062-.26855-.67871-.26855-.19727,0-.37207.04297-.52441.12793s-.27246.20996-.36035.37305c-.08789.16406-.13184.36133-.13184.59277Z" fill="#33466e" stroke-width="0"/>
  <path d="m106.02709,75.02637v.68164h-2.38379v-.68164h2.38379Zm-1.74512-1.0459h.84961v4.12793c0,.16504.02441.28809.07422.37109.04883.08203.11328.1377.19141.16699.0791.0293.16406.04395.25684.04395.06836,0,.12793-.00391.17969-.01367.05078-.00977.09082-.01758.11914-.02246l.15332.70117c-.04883.01855-.11914.03809-.20996.05859-.09082.01953-.20508.03027-.34082.03223-.22363.00391-.43262-.03613-.625-.11914-.19336-.08301-.34961-.21191-.46875-.38672-.12012-.17383-.17969-.39258-.17969-.65625v-4.30371Z" fill="#33466e" stroke-width="0"/>
  <path d="m108.23412,79.48633c-.27637,0-.52637-.05176-.75-.15527-.22363-.10254-.40039-.25293-.5293-.4502-.12988-.19629-.19531-.43848-.19531-.72461,0-.24609.04785-.44824.14258-.60742s.22266-.28516.38281-.37793c.16113-.09277.3418-.16309.54004-.20996.19922-.04785.40137-.08398.6084-.1084.26074-.03027.47363-.05566.63574-.0752.16309-.01953.28125-.05273.35547-.09766.07422-.0459.11035-.11914.11035-.22168v-.02051c0-.24805-.06934-.43945-.20801-.57617-.13965-.13672-.34668-.20508-.62109-.20508-.28613,0-.51074.06348-.6748.18945s-.27734.26562-.33984.41895l-.79785-.18164c.09473-.26562.2334-.47949.41602-.64355s.39355-.2832.63184-.3584c.23926-.07422.49023-.1123.75293-.1123.1748,0,.35938.02051.55566.06152s.37988.11523.55078.22266c.17188.1084.3125.26172.42188.46191.11035.2002.16504.45898.16504.77734v2.89746h-.8291v-.59668h-.03418c-.05469.11035-.1377.21777-.24707.32422-.11035.10547-.25098.19434-.42383.26367-.17188.07031-.37891.10547-.61914.10547Zm.18457-.68164c.23535,0,.43652-.04688.60352-.13965.16797-.09277.2959-.21387.38379-.36523.08789-.15039.13184-.31152.13184-.48438v-.5625c-.03027.03027-.08789.05859-.1748.08398-.08594.02539-.18359.04785-.29395.06543-.10938.01855-.2168.03418-.32031.04883-.10449.01367-.19141.02539-.26172.03516-.16504.02051-.31445.05566-.4502.10547-.13574.04883-.24316.11914-.32422.21094-.08008.0918-.12012.21387-.12012.36523,0,.20996.07715.36914.23242.47559.15527.10742.35352.16113.59375.16113Z" fill="#33466e" stroke-width="0"/>
  <path d="m111.5183,79.38965v-4.36328h.82031v.69238h.0459c.0791-.23438.21973-.41992.42188-.55469.20215-.13574.43066-.20312.68652-.20312.05273,0,.11523.00195.18848.00586.07324.00293.12988.00781.17188.01367v.8125c-.03418-.00977-.09473-.02051-.18164-.03223-.08691-.0127-.1748-.01855-.26172-.01855-.2002,0-.37891.04199-.53516.12598s-.28027.20117-.37109.34961-.13574.31738-.13574.50684v2.66504h-.84961Z" fill="#33466e" stroke-width="0"/>
  <path d="m115.02123,74.35254c-.14746,0-.27441-.0498-.37891-.14941-.10547-.09863-.1582-.21777-.1582-.35645,0-.13965.05273-.25977.1582-.35938.10449-.09863.23145-.14844.37891-.14844s.27441.0498.37891.14844c.10547.09961.1582.21875.1582.35645,0,.14062-.05273.26074-.1582.35938-.10449.09961-.23145.14941-.37891.14941Zm-.42871,5.03711v-4.36328h.84961v4.36328h-.84961Z" fill="#33466e" stroke-width="0"/>
  <path d="m117.85326,79.48633c-.27637,0-.52637-.05176-.75-.15527-.22363-.10254-.40039-.25293-.5293-.4502-.12988-.19629-.19531-.43848-.19531-.72461,0-.24609.04785-.44824.14258-.60742s.22266-.28516.38281-.37793c.16113-.09277.3418-.16309.54004-.20996.19922-.04785.40137-.08398.6084-.1084.26074-.03027.47363-.05566.63574-.0752.16309-.01953.28125-.05273.35547-.09766.07422-.0459.11035-.11914.11035-.22168v-.02051c0-.24805-.06934-.43945-.20801-.57617-.13965-.13672-.34668-.20508-.62109-.20508-.28613,0-.51074.06348-.6748.18945s-.27734.26562-.33984.41895l-.79785-.18164c.09473-.26562.2334-.47949.41602-.64355s.39355-.2832.63184-.3584c.23926-.07422.49023-.1123.75293-.1123.1748,0,.35938.02051.55566.06152s.37988.11523.55078.22266c.17188.1084.3125.26172.42188.46191.11035.2002.16504.45898.16504.77734v2.89746h-.8291v-.59668h-.03418c-.05469.11035-.1377.21777-.24707.32422-.11035.10547-.25098.19434-.42383.26367-.17188.07031-.37891.10547-.61914.10547Zm.18457-.68164c.23535,0,.43652-.04688.60352-.13965.16797-.09277.2959-.21387.38379-.36523.08789-.15039.13184-.31152.13184-.48438v-.5625c-.03027.03027-.08789.05859-.1748.08398-.08594.02539-.18359.04785-.29395.06543-.10938.01855-.2168.03418-.32031.04883-.10449.01367-.19141.02539-.26172.03516-.16504.02051-.31445.05566-.4502.10547-.13574.04883-.24316.11914-.32422.21094-.08008.0918-.12012.21387-.12012.36523,0,.20996.07715.36914.23242.47559.15527.10742.35352.16113.59375.16113Z" fill="#33466e" stroke-width="0"/>
  <path d="m123.17552,75.02637v.68164h-2.38379v-.68164h2.38379Zm-1.74512-1.0459h.84961v4.12793c0,.16504.02441.28809.07422.37109.04883.08203.11328.1377.19141.16699.0791.0293.16406.04395.25684.04395.06836,0,.12793-.00391.17969-.01367.05078-.00977.09082-.01758.11914-.02246l.15332.70117c-.04883.01855-.11914.03809-.20996.05859-.09082.01953-.20508.03027-.34082.03223-.22363.00391-.43262-.03613-.625-.11914-.19336-.08301-.34961-.21191-.46875-.38672-.12012-.17383-.17969-.39258-.17969-.65625v-4.30371Z" fill="#33466e" stroke-width="0"/>
  <path d="m125.90501,79.47754c-.40918,0-.7666-.09375-1.07129-.28125s-.54102-.44922-.70996-.78711c-.16895-.33691-.25293-.73047-.25293-1.18164,0-.45215.08398-.84863.25293-1.1875s.40527-.60254.70996-.79004.66211-.28125,1.07129-.28125.76562.09375,1.07129.28125c.30469.1875.54102.45117.70996.79004s.25293.73535.25293,1.1875c0,.45117-.08398.84473-.25293,1.18164-.16895.33789-.40527.59961-.70996.78711-.30566.1875-.66211.28125-1.07129.28125Zm.00293-.71289c.26465,0,.48438-.07031.65918-.20996.17383-.14062.30371-.32715.3877-.55957.08398-.2334.12598-.49023.12598-.77051,0-.27832-.04199-.53418-.12598-.76855-.08398-.2334-.21387-.42188-.3877-.56348-.1748-.14258-.39453-.21289-.65918-.21289-.26758,0-.48828.07031-.66309.21289-.17578.1416-.30566.33008-.38965.56348-.08398.23438-.12598.49023-.12598.76855,0,.28027.04199.53711.12598.77051.08398.23242.21387.41895.38965.55957.1748.13965.39551.20996.66309.20996Z" fill="#33466e" stroke-width="0"/>
</svg>