<?xml version="1.0" encoding="UTF-8"?>
<svg width="1280px" height="501px" viewBox="0 0 1280 501" version="1.1" xmlns="http://www.w3.org/2000/svg" xmlns:xlink="http://www.w3.org/1999/xlink">
    <title>Group Copy</title>
    <defs>
        <rect id="path-1" x="0" y="0" width="1280" height="501"></rect>
    </defs>
    <g id="Cascina-Cristina" stroke="none" stroke-width="1" fill="none" fill-rule="evenodd">
        <g id="Group-Copy">
            <mask id="mask-2" fill="white">
                <use xlink:href="#path-1"></use>
            </mask>
            <use id="Mask" fill-opacity="0.295372596" fill="#EDE5DE" xlink:href="#path-1"></use>
            <g mask="url(#mask-2)">
                <g transform="translate(-62.000000, 48.000000)">
                    <g id="Group-3" transform="translate(0.000000, 154.000000)">
                        <path d="M353.580115,133.445697 C361.253801,105.132066 360.355471,76.888787 352.602414,52.437254 C341.694379,18.0373474 215.96245,-16.0342538 189.178506,8.1503056 C170.142207,25.3412395 155.106904,49.2660408 147.435022,77.5778675 C139.761335,105.88789 140.657861,134.127562 148.409115,158.579095 C159.315346,192.980805 285.050883,227.057818 311.834827,202.871455 C330.87293,185.682325 345.906428,161.75572 353.580115,133.445697" id="Fill-3" stroke="#4A4A4A"></path>
                        <path d="M244.975984,156.862527 C242.809529,127.609077 231.358528,101.357276 213.869954,81.0221874 C189.265092,52.4145252 40.0773689,63.4686745 19.958745,95.39186 C5.65761971,118.08281 -1.7977979,145.734419 0.370460498,174.986064 C2.5387189,204.23771 13.9843092,230.485903 31.4728826,250.820992 C56.0759411,279.432262 205.269076,268.379917 225.389503,236.456731 C239.688825,213.765781 247.144242,186.114173 244.975984,156.862527" id="Fill-7" stroke="#4A4A4A"></path>
                        <path d="M367.362806,268.879049 C377.395962,241.314027 377.610623,212.630602 369.80345,186.831574 C358.819652,150.535794 216.275603,98.6419025 184.527393,119.382864 C161.962714,134.124134 143.685847,156.230629 133.650887,183.793848 C123.617731,211.353458 123.40307,240.035079 131.20844,265.834107 C142.190434,302.131691 284.738091,354.02919 316.486301,333.288229 C339.052784,318.546958 357.327847,296.440463 367.362806,268.879049" id="Fill-5" stroke="#4A4A4A"></path>
                    </g>
                    <g id="Group-2" transform="translate(1033.000000, 0.000000)">
                        <path d="M353.580115,133.445697 C361.253801,105.132066 360.355471,76.888787 352.602414,52.437254 C341.694379,18.0373474 215.96245,-16.0342538 189.178506,8.1503056 C170.142207,25.3412395 155.106904,49.2660408 147.435022,77.5778675 C139.761335,105.88789 140.657861,134.127562 148.409115,158.579095 C159.315346,192.980805 285.050883,227.057818 311.834827,202.871455 C330.87293,185.682325 345.906428,161.75572 353.580115,133.445697" id="Fill-3-Copy" stroke="#4A4A4A"></path>
                        <path d="M367.362806,268.879049 C377.395962,241.314027 377.610623,212.630602 369.80345,186.831574 C358.819652,150.535794 216.275603,98.6419025 184.527393,119.382864 C161.962714,134.124134 143.685847,156.230629 133.650887,183.793848 C123.617731,211.353458 123.40307,240.035079 131.20844,265.834107 C142.190434,302.131691 284.738091,354.02919 316.486301,333.288229 C339.052784,318.546958 357.327847,296.440463 367.362806,268.879049" id="Fill-5-Copy" stroke="#4A4A4A"></path>
                        <path d="M244.975984,156.862527 C242.809529,127.609077 231.358528,101.357276 213.869954,81.0221874 C189.265092,52.4145252 40.0773689,63.4686745 19.958745,95.39186 C5.65761971,118.08281 -1.7977979,145.734419 0.370460498,174.986064 C2.5387189,204.23771 13.9843092,230.485903 31.4728826,250.820992 C56.0759411,279.432262 205.269076,268.379917 225.389503,236.456731 C239.688825,213.765781 247.144242,186.114173 244.975984,156.862527" id="Fill-7-Copy" stroke="#4A4A4A"></path>
                    </g>
                </g>
            </g>
        </g>
    </g>
</svg>