<?xml version="1.0" encoding="UTF-8"?>
<svg width="703px" height="83px" viewBox="0 0 703 83" version="1.1" xmlns="http://www.w3.org/2000/svg" xmlns:xlink="http://www.w3.org/1999/xlink">
    <title>Group 5 Copy</title>
    <g id="Cascina-Cristina" stroke="none" stroke-width="1" fill="none" fill-rule="evenodd">
        <g id="Group-5-Copy" transform="translate(0.450603, 0.000000)">
            <path d="M83.3062634,33.4602316 C85.3125338,26.5862455 85.2354712,19.6906819 83.4735994,13.6903658 C80.9943847,5.24958643 50.6088121,-3.6174593 43.9787843,2.16576038 C39.2665149,6.27606058 35.4935288,12.0473906 33.4872584,18.9209363 C31.4814284,25.7944821 31.5580507,32.689165 33.3194821,38.6890407 C35.7982565,47.1307007 66.1847097,55.9990675 72.8147376,50.2158479 C77.5270069,46.1051073 81.299993,40.3337773 83.3062634,33.4602316" id="Fill-9-Copy-2" fill="#F37847"></path>
            <path d="M85.2663843,51.8774501 C84.2614877,44.7872484 81.2586875,38.5495794 77.0277292,33.8307046 C71.0749718,27.1918696 38.2991368,31.8380853 34.4257491,39.8697722 C31.6730722,45.5785714 30.5224171,52.4049989 31.5273137,59.4947603 C32.5322103,66.5840814 35.5341298,72.8217503 39.7650881,77.5401847 C45.7174052,84.1799004 78.4950016,79.5341251 82.3679489,71.5019979 C85.1206258,65.793639 86.2712809,58.9672116 85.2663843,51.8774501" id="Fill-11-Copy-2" fill="#94C3D7"></path>
            <path d="M52.8127591,48.7284952 C54.8956518,41.8769673 54.834442,34.9629087 53.0364609,28.9119514 C50.5066051,20.3993938 19.2508854,10.8977924 12.4112472,16.5621155 C7.54969651,20.5878669 3.65032772,26.2979872 1.56787544,33.1486343 C-0.515017207,39.9992815 -0.453807466,46.9128997 1.34373329,52.9634166 C3.8731488,61.476855 35.1297492,70.9797775 41.9693874,65.3154544 C46.8309381,61.2892626 50.7303068,55.5795827 52.8127591,48.7284952" id="Fill-13-Copy-2" fill="#F2EEE2"></path>
            <path d="M239.940363,24.5849511 C239.509252,17.4370625 237.055138,10.9752513 233.280831,5.92742927 C227.970115,-1.17378146 195.521026,0.785810981 191.103796,8.47489945 C187.964045,13.9397404 186.305657,20.6490327 186.737208,27.796481 C187.168758,34.9439293 189.621552,41.4048597 193.395859,46.4522414 C198.705694,53.5547732 231.156985,51.5960615 235.573774,43.906973 C238.713526,38.4416917 240.371913,31.7323995 239.940363,24.5849511" id="Fill-33-Copy-2" fill="#F37847"></path>
            <path d="M242.125815,50.0119622 C240.740449,42.9860526 237.239604,36.9513886 232.480216,32.5222693 C225.784135,26.2912057 190.668679,33.2136312 186.838446,41.519661 C184.116154,47.4239791 183.167182,54.3349552 184.552108,61.3604244 C185.936593,68.3854532 189.436998,74.4192365 194.195945,78.8483558 C200.892026,85.0807405 236.008363,78.1587554 239.839036,69.8527256 C242.561329,63.9484075 243.51074,57.036991 242.125815,50.0119622" id="Fill-35-Copy-2" fill="#94C3D7"></path>
            <path d="M211.93422,48.9074126 C213.784163,41.9893907 213.184836,34.9995905 210.672154,28.8768549 C207.136521,20.263015 170.783219,10.5425557 163.420435,16.2434285 C158.187223,20.2947207 154.179966,26.0523996 152.330023,32.9699812 C150.48052,39.8871223 151.079407,46.8760418 153.592089,52.9987774 C157.126841,61.6134981 193.481464,71.3343977 200.844248,65.6339653 C206.07746,61.582673 210.084717,55.8245537 211.93422,48.9074126" id="Fill-37-Copy-2" fill="#F2EEE2"></path>
            <path d="M394.568324,31.3016854 C395.935195,24.272253 395.162366,17.4009091 392.750527,11.5674886 C389.35845,3.36053931 357.292032,-2.87316645 351.071536,3.46490412 C346.650344,7.96976496 343.359549,14.0511069 341.992679,21.0796586 C340.626689,28.1086506 341.399076,34.9791139 343.809595,40.812094 C347.202112,49.019924 379.269411,55.2549508 385.489906,48.9164399 C389.911099,44.4115791 393.201453,38.3306775 394.568324,31.3016854" id="Fill-57-Copy-2" fill="#F37847"></path>
            <path d="M395.23529,46.2015897 C392.858678,39.4465002 388.585005,33.9561185 383.334178,30.2210032 C375.946735,24.9670937 343.066976,36.5366156 340.597889,45.2596643 C338.843063,51.4594625 338.94963,58.4162358 341.326241,65.1708849 C343.702852,71.9250937 347.975204,77.4145947 353.226031,81.14971 C360.613475,86.4049406 393.494555,74.8354187 395.963642,66.11237 C397.718908,59.9121315 397.611901,52.9562388 395.23529,46.2015897" id="Fill-59-Copy-2" fill="#94C3D7"></path>
            <path d="M363.162706,43.9449759 C363.982212,36.8309948 362.721027,30.0446399 359.933562,24.4221508 C356.011735,16.5128834 324.187954,12.8460236 318.569868,19.6565982 C314.576703,24.497452 311.805531,30.818789 310.986025,37.9323298 C310.166079,45.0454302 311.426824,51.8313447 314.214289,57.4533934 C318.135675,65.3635415 349.960337,69.0312821 355.577983,62.2207075 C359.571588,57.3798536 362.34276,51.0585166 363.162706,43.9449759" id="Fill-61-Copy-2" fill="#F2EEE2"></path>
            <path d="M553.043383,32.7012308 C554.570984,25.7048252 553.673535,18.7559783 550.920858,12.7649097 C547.048351,4.33646038 510.67171,-3.60451278 503.639195,2.44336197 C498.640693,6.74213533 494.928477,12.6843242 493.401756,19.6802894 C491.874595,26.6758143 492.771604,33.6242208 495.5234,39.6148491 C499.395467,48.0437387 535.772988,55.9860329 542.805944,49.9381582 C547.804446,45.6389445 551.516222,39.6967556 553.043383,32.7012308" id="Fill-81-Copy-2" fill="#F37847"></path>
            <path d="M548.278579,54.9139377 C548.05796,47.7563612 545.918261,41.2214506 542.499323,36.0582548 C537.689734,28.794552 507.125817,29.7369178 502.772879,37.2833304 C499.679365,42.6477697 497.945676,49.3011365 498.166296,56.4582727 C498.386915,63.6154089 500.526614,70.1494387 503.944671,75.3121942 C508.75382,82.5767777 539.319058,81.6352926 543.671996,74.0884397 C546.76595,68.7244407 548.499198,62.0710739 548.278579,54.9139377" id="Fill-83-Copy-2" fill="#94C3D7"></path>
            <path d="M516.832537,30.9641071 C514.161766,24.3199878 509.783288,18.9691995 504.593671,15.378962 C497.293859,10.3289381 467.022339,22.496466 465.247697,31.1948546 C463.986952,37.3770385 464.529473,44.2690793 467.199803,50.9131986 C469.870133,57.5568775 474.248171,62.9072254 479.436907,66.4970226 C486.73716,71.5483675 517.010001,59.3808397 518.784643,50.682451 C520.045388,44.5002671 519.502426,37.607786 516.832537,30.9641071" id="Fill-85-Copy-2" fill="#F2EEE2"></path>
            <path d="M699.418062,33.4602316 C701.424333,26.5862455 701.34727,19.6906819 699.585398,13.6903658 C697.106184,5.24958643 666.720611,-3.6174593 660.090583,2.16576038 C655.378314,6.27606058 651.605328,12.0473906 649.599057,18.9209363 C647.593227,25.7944821 647.66985,32.689165 649.431281,38.6890407 C651.910055,47.1307007 682.296509,55.9990675 688.926537,50.2158479 C693.638806,46.1051073 697.411792,40.3337773 699.418062,33.4602316" id="Fill-9-Copy-3" fill="#F37847"></path>
            <path d="M701.378183,51.8774501 C700.373287,44.7872484 697.370486,38.5495794 693.139528,33.8307046 C687.186771,27.1918696 654.410936,31.8380853 650.537548,39.8697722 C647.784871,45.5785714 646.634216,52.4049989 647.639113,59.4947603 C648.644009,66.5840814 651.645929,72.8217503 655.876887,77.5401847 C661.829204,84.1799004 694.606801,79.5341251 698.479748,71.5019979 C701.232425,65.793639 702.38308,58.9672116 701.378183,51.8774501" id="Fill-11-Copy-3" fill="#94C3D7"></path>
            <path d="M668.924558,48.7284952 C671.007451,41.8769673 670.946241,34.9629087 669.14826,28.9119514 C666.618404,20.3993938 635.362684,10.8977924 628.523046,16.5621155 C623.661495,20.5878669 619.762127,26.2979872 617.679674,33.1486343 C615.596782,39.9992815 615.657992,46.9128997 617.455532,52.9634166 C619.984948,61.476855 651.241548,70.9797775 658.081186,65.3154544 C662.942737,61.2892626 666.842106,55.5795827 668.924558,48.7284952" id="Fill-13-Copy-3" fill="#F2EEE2"></path>
        </g>
    </g>
</svg>