<?xml version="1.0" encoding="UTF-8"?>
<svg width="111px" height="33px" viewBox="0 0 111 33" version="1.1" xmlns="http://www.w3.org/2000/svg" xmlns:xlink="http://www.w3.org/1999/xlink">
    <title>logo</title>
    <defs>
        <filter id="filter-1">
            <feColorMatrix in="SourceGraphic" type="matrix" values="0 0 0 0 0.200000 0 0 0 0 0.200000 0 0 0 0 0.200000 0 0 0 1.000000 0"></feColorMatrix>
        </filter>
        <polygon id="path-2" points="9.99999997e-05 31.7506 109.5931 31.7506 109.5931 0.0006 9.99999997e-05 0.0006"></polygon>
    </defs>
    <g id="Symbols" stroke="none" stroke-width="1" fill="none" fill-rule="evenodd">
        <g id="logo" transform="translate(-15.000000, -15.000000)" filter="url(#filter-1)">
            <g transform="translate(15.875000, 15.874550)">
                <path d="M43.1097,7.6882 C43.1097,7.3202 42.9767,7.0062 42.7157,6.7442 C42.4547,6.4812 42.1427,6.3502 41.7837,6.3502 L38.1437,6.3502 L38.1437,9.0202 L41.7837,9.0202 C42.1427,9.0202 42.4547,8.8902 42.7157,8.6262 C42.9767,8.3642 43.1097,8.0512 43.1097,7.6882 L43.1097,7.6882 Z M42.9727,14.4272 L40.6537,10.4072 L38.1437,10.4072 L38.1437,14.4272 L36.7557,14.4272 L36.7557,4.9822 L41.7837,4.9822 C42.5167,4.9822 43.1537,5.2502 43.6907,5.7862 C44.2267,6.3232 44.4957,6.9602 44.4957,7.6952 C44.4957,8.3572 44.2767,8.9412 43.8387,9.4462 C43.4067,9.9562 42.8677,10.2662 42.2207,10.3742 L44.5767,14.4272 L42.9727,14.4272 Z" id="Fill-2" fill="#FEFEFE"></path>
                <path d="M51.8616,10.1907 C51.7026,9.7047 51.4226,9.3127 51.0156,9.0187 C50.6186,8.7127 50.1656,8.5617 49.6556,8.5617 C49.1466,8.5617 48.6926,8.7127 48.2966,9.0187 C47.8866,9.3277 47.6036,9.7167 47.4506,10.1907 L51.8616,10.1907 Z M53.3566,10.8687 C53.3566,11.0987 53.3356,11.3287 53.2966,11.5577 L47.4506,11.5577 C47.6086,12.0417 47.8906,12.4307 48.2966,12.7277 C48.7016,13.0257 49.1556,13.1767 49.6556,13.1767 C50.4756,13.1767 51.1386,12.7937 51.6436,12.0297 L52.8076,12.7947 C52.0286,13.9587 50.9766,14.5407 49.6556,14.5407 C48.6416,14.5407 47.7706,14.1857 47.0456,13.4727 C46.3226,12.7507 45.9646,11.8817 45.9646,10.8687 C45.9646,9.8527 46.3226,8.9867 47.0456,8.2637 C47.7706,7.5367 48.6416,7.1747 49.6556,7.1747 C50.6706,7.1747 51.5406,7.5367 52.2676,8.2637 C52.9926,8.9887 53.3566,9.8587 53.3566,10.8687 L53.3566,10.8687 Z" id="Fill-4" fill="#FEFEFE"></path>
                <path d="M60.8382,10.8684 C60.8382,10.2424 60.6092,9.7004 60.1542,9.2434 C59.6992,8.7894 59.1532,8.5624 58.5242,8.5624 C57.8922,8.5624 57.3502,8.7894 56.8942,9.2434 C56.4422,9.6944 56.2182,10.2364 56.2182,10.8684 C56.2182,11.5034 56.4422,12.0464 56.8942,12.4974 C57.3442,12.9494 57.8892,13.1764 58.5242,13.1764 C59.1592,13.1764 59.7032,12.9494 60.1542,12.4974 C60.6092,12.0424 60.8382,11.5004 60.8382,10.8684 L60.8382,10.8684 Z M62.2252,13.6414 C62.2252,14.6384 61.8592,15.4964 61.1282,16.2174 C60.4012,16.9494 59.5332,17.3154 58.5242,17.3154 C57.9002,17.3154 57.3092,17.1554 56.7442,16.8344 C56.1982,16.5134 55.7412,16.0864 55.3702,15.5494 L56.5412,14.7854 C57.0482,15.5464 57.7082,15.9274 58.5242,15.9274 C59.2082,15.9274 59.7572,15.7024 60.1672,15.2514 C60.5512,14.8284 60.7702,14.2754 60.8232,13.5944 C60.1392,14.2254 59.3322,14.5404 58.4082,14.5404 C57.4122,14.5404 56.5672,14.1794 55.8712,13.4584 C55.1772,12.7364 54.8302,11.8724 54.8302,10.8684 C54.8302,9.8584 55.1772,8.9904 55.8712,8.2704 C56.5672,7.5404 57.4122,7.1744 58.4082,7.1744 C59.3322,7.1744 60.1432,7.5014 60.8382,8.1564 L60.8382,7.2884 L62.2252,7.2884 L62.2252,13.6414 Z" id="Fill-6" fill="#FEFEFE"></path>
                <mask id="mask-3" fill="white">
                    <use xlink:href="#path-2"></use>
                </mask>
                <g id="Clip-9"></g>
                <path d="M64.8551,14.4266 L66.2431,14.4266 L66.2431,7.2876 L64.8551,7.2876 L64.8551,14.4266 Z M64.8551,6.3506 L66.2431,6.3506 L66.2431,4.9816 L64.8551,4.9816 L64.8551,6.3506 Z" id="Fill-8" fill="#FEFEFE" mask="url(#mask-3)"></path>
                <path d="M74.2972,10.8684 C74.2972,10.2424 74.0702,9.7004 73.6152,9.2434 C73.1592,8.7894 72.6142,8.5624 71.9842,8.5624 C71.3532,8.5624 70.8092,8.7894 70.3532,9.2434 C69.9022,9.6944 69.6782,10.2364 69.6782,10.8684 C69.6782,11.5034 69.9022,12.0464 70.3532,12.4974 C70.8052,12.9494 71.3482,13.1764 71.9842,13.1764 C72.6192,13.1764 73.1632,12.9494 73.6152,12.4974 C74.0702,12.0424 74.2972,11.5004 74.2972,10.8684 M75.6842,10.8684 C75.6842,11.8784 75.3212,12.7464 74.5952,13.4734 C73.8692,14.1844 72.9972,14.5404 71.9842,14.5404 C70.9682,14.5404 70.0982,14.1844 69.3732,13.4734 C68.6512,12.7504 68.2912,11.8814 68.2912,10.8684 C68.2912,9.8524 68.6512,8.9864 69.3732,8.2644 C70.0982,7.5354 70.9682,7.1744 71.9842,7.1744 C72.9972,7.1744 73.8692,7.5354 74.5952,8.2644 C75.3212,8.9894 75.6842,9.8584 75.6842,10.8684" id="Fill-10" fill="#FEFEFE" mask="url(#mask-3)"></path>
                <path d="M82.5843,14.4265 L82.5843,10.2925 C82.5843,9.8235 82.4133,9.4175 82.0693,9.0755 C81.7333,8.7325 81.3273,8.5615 80.8553,8.5615 C80.3883,8.5615 79.9813,8.7325 79.6403,9.0755 C79.2993,9.4175 79.1283,9.8235 79.1283,10.2925 L79.1283,14.4265 L77.7403,14.4265 L77.7403,7.2875 L79.1283,7.2875 L79.1283,7.9585 C79.6903,7.4345 80.3453,7.1745 81.0933,7.1745 C81.9183,7.1745 82.6083,7.4945 83.1673,8.1335 C83.7023,8.7405 83.9713,9.4575 83.9713,10.2925 L83.9713,14.4265 L82.5843,14.4265 Z" id="Fill-11" fill="#FEFEFE" mask="url(#mask-3)"></path>
                <path d="M91.9251,10.1907 C91.7671,9.7047 91.4871,9.3127 91.0791,9.0187 C90.6841,8.7127 90.2281,8.5617 89.7191,8.5617 C89.2111,8.5617 88.7561,8.7127 88.3621,9.0187 C87.9501,9.3277 87.6671,9.7167 87.5141,10.1907 L91.9251,10.1907 Z M93.4201,10.8687 C93.4201,11.0987 93.4011,11.3287 93.3611,11.5577 L87.5141,11.5577 C87.6721,12.0417 87.9541,12.4307 88.3621,12.7277 C88.7671,13.0257 89.2191,13.1767 89.7191,13.1767 C90.5401,13.1767 91.2021,12.7937 91.7071,12.0297 L92.8721,12.7947 C92.0921,13.9587 91.0421,14.5407 89.7191,14.5407 C88.7051,14.5407 87.8351,14.1857 87.1101,13.4727 C86.3871,12.7507 86.0281,11.8817 86.0281,10.8687 C86.0281,9.8527 86.3871,8.9867 87.1101,8.2637 C87.8351,7.5367 88.7051,7.1747 89.7191,7.1747 C90.7361,7.1747 91.6041,7.5367 92.3311,8.2637 C93.0581,8.9887 93.4201,9.8587 93.4201,10.8687 L93.4201,10.8687 Z" id="Fill-12" fill="#FEFEFE" mask="url(#mask-3)"></path>
                <polygon id="Fill-13" fill="#FEFEFE" mask="url(#mask-3)" points="36.7562 26.7453 36.7562 17.3003 38.1442 17.3003 38.1442 25.3793 42.7642 25.3793 42.7642 26.7453"></polygon>
                <path d="M49.6634,23.1867 C49.6634,22.5607 49.4354,22.0197 48.9794,21.5637 C48.5234,21.1077 47.9804,20.8807 47.3494,20.8807 C46.7174,20.8807 46.1744,21.1077 45.7184,21.5637 C45.2674,22.0147 45.0434,22.5547 45.0434,23.1867 C45.0434,23.8227 45.2674,24.3647 45.7184,24.8167 C46.1694,25.2677 46.7134,25.4947 47.3494,25.4947 C47.9854,25.4947 48.5284,25.2677 48.9794,24.8167 C49.4354,24.3617 49.6634,23.8187 49.6634,23.1867 M51.0494,23.1867 C51.0494,24.1977 50.6864,25.0647 49.9614,25.7907 C49.2334,26.5047 48.3634,26.8607 47.3494,26.8607 C46.3354,26.8607 45.4634,26.5047 44.7384,25.7907 C44.0174,25.0687 43.6564,24.2007 43.6564,23.1867 C43.6564,22.1727 44.0174,21.3047 44.7384,20.5827 C45.4634,19.8557 46.3354,19.4927 47.3494,19.4927 C48.3634,19.4927 49.2334,19.8557 49.9614,20.5827 C50.6864,21.3077 51.0494,22.1767 51.0494,23.1867" id="Fill-14" fill="#FEFEFE" mask="url(#mask-3)"></path>
                <path d="M61.4114,26.7453 L61.4114,22.3823 C61.4114,21.9903 61.2784,21.6413 61.0154,21.3333 C60.7514,21.0303 60.4244,20.8803 60.0314,20.8803 C59.6024,20.8803 59.2644,21.0193 59.0114,21.2993 C58.7664,21.5793 58.6444,21.9403 58.6444,22.3823 L58.6444,26.7453 L57.2594,26.7453 L57.2594,22.3823 C57.2594,21.9903 57.1264,21.6413 56.8604,21.3333 C56.5994,21.0303 56.2704,20.8803 55.8744,20.8803 C55.4504,20.8803 55.1144,21.0193 54.8624,21.2993 C54.6154,21.5753 54.4924,21.9343 54.4924,22.3823 L54.4924,26.7453 L53.1044,26.7453 L53.1044,19.6083 L54.4924,19.6083 L54.4924,20.0553 C54.9604,19.6803 55.4994,19.4933 56.1054,19.4933 C56.8554,19.4933 57.4744,19.8013 57.9674,20.4123 C58.5084,19.8013 59.1954,19.4933 60.0324,19.4933 C60.8094,19.4933 61.4644,19.7793 61.9944,20.3533 C62.5304,20.9293 62.7994,21.6053 62.7994,22.3823 L62.7994,26.7453 L61.4114,26.7453 Z" id="Fill-15" fill="#FEFEFE" mask="url(#mask-3)"></path>
                <path d="M71.4349,23.1867 C71.4349,22.5607 71.2089,22.0197 70.7529,21.5637 C70.2999,21.1077 69.7589,20.8807 69.1339,20.8807 C68.5019,20.8807 67.9599,21.1077 67.5039,21.5637 C67.0509,22.0197 66.8229,22.5607 66.8229,23.1867 C66.8229,23.8187 67.0509,24.3617 67.5039,24.8167 C67.9559,25.2677 68.4969,25.4947 69.1339,25.4947 C69.7629,25.4947 70.3039,25.2677 70.7529,24.8167 C71.2089,24.3617 71.4349,23.8187 71.4349,23.1867 M72.8239,23.1867 C72.8239,24.1897 72.4729,25.0517 71.7759,25.7767 C71.0809,26.4987 70.2399,26.8607 69.2469,26.8607 C68.3109,26.8607 67.5029,26.5407 66.8229,25.8987 L66.8229,26.7447 L65.4369,26.7447 L65.4369,17.2997 L66.8229,17.2997 L66.8229,20.4747 C67.5029,19.8207 68.3109,19.4927 69.2469,19.4927 C70.2359,19.4927 71.0779,19.8597 71.7759,20.5897 C72.4729,21.3287 72.8239,22.1957 72.8239,23.1867" id="Fill-16" fill="#FEFEFE" mask="url(#mask-3)"></path>
                <path d="M80.305,23.1867 C80.305,22.5607 80.077,22.0197 79.622,21.5637 C79.167,21.1077 78.621,20.8807 77.991,20.8807 C77.359,20.8807 76.817,21.1077 76.361,21.5637 C75.909,22.0147 75.685,22.5547 75.685,23.1867 C75.685,23.8227 75.909,24.3647 76.361,24.8167 C76.813,25.2677 77.355,25.4947 77.991,25.4947 C78.626,25.4947 79.17,25.2677 79.622,24.8167 C80.077,24.3617 80.305,23.8187 80.305,23.1867 L80.305,23.1867 Z M80.305,26.7447 L80.305,25.8987 C79.623,26.5407 78.814,26.8607 77.876,26.8607 C76.879,26.8607 76.035,26.4987 75.34,25.7767 C74.645,25.0557 74.298,24.1917 74.298,23.1867 C74.298,22.1767 74.645,21.3107 75.34,20.5897 C76.035,19.8597 76.879,19.4927 77.876,19.4927 C78.814,19.4927 79.623,19.8207 80.305,20.4747 L80.305,19.6077 L81.692,19.6077 L81.692,26.7447 L80.305,26.7447 Z" id="Fill-17" fill="#FEFEFE" mask="url(#mask-3)"></path>
                <path d="M87.5569,20.8801 C87.0589,20.8801 86.6259,21.0441 86.2569,21.3741 C85.8929,21.6991 85.7099,22.1121 85.7099,22.6121 L85.7099,26.7451 L84.3239,26.7451 L84.3239,19.6081 L85.7099,19.6081 L85.7099,20.2311 C86.2149,19.7391 86.8289,19.4931 87.5569,19.4931 L87.5569,20.8801 Z" id="Fill-18" fill="#FEFEFE" mask="url(#mask-3)"></path>
                <path d="M94.7454,23.1867 C94.7454,22.5607 94.5184,22.0197 94.0624,21.5637 C93.6074,21.1077 93.0644,20.8807 92.4324,20.8807 C91.8004,20.8807 91.2574,21.1077 90.8024,21.5637 C90.3504,22.0147 90.1264,22.5547 90.1264,23.1867 C90.1264,23.8227 90.3504,24.3647 90.8024,24.8167 C91.2534,25.2677 91.7964,25.4947 92.4324,25.4947 C93.0684,25.4947 93.6114,25.2677 94.0624,24.8167 C94.5184,24.3617 94.7454,23.8187 94.7454,23.1867 L94.7454,23.1867 Z M94.7454,26.7447 L94.7454,25.8987 C94.0634,26.5407 93.2544,26.8607 92.3164,26.8607 C91.3204,26.8607 90.4754,26.4987 89.7794,25.7767 C89.0844,25.0557 88.7394,24.1917 88.7394,23.1867 C88.7394,22.1767 89.0844,21.3107 89.7794,20.5897 C90.4754,19.8597 91.3204,19.4927 92.3164,19.4927 C93.2544,19.4927 94.0634,19.8207 94.7454,20.4747 L94.7454,17.2997 L96.1324,17.2997 L96.1324,26.7447 L94.7454,26.7447 Z" id="Fill-19" fill="#FEFEFE" mask="url(#mask-3)"></path>
                <path d="M98.7631,26.7456 L100.1501,26.7456 L100.1501,19.6086 L98.7631,19.6086 L98.7631,26.7456 Z M98.7631,18.6686 L100.1501,18.6686 L100.1501,17.2996 L98.7631,17.2996 L98.7631,18.6686 Z" id="Fill-20" fill="#FEFEFE" mask="url(#mask-3)"></path>
                <path d="M108.2064,23.1867 C108.2064,22.5607 107.9794,22.0197 107.5234,21.5637 C107.0684,21.1077 106.5244,20.8807 105.8934,20.8807 C105.2614,20.8807 104.7184,21.1077 104.2634,21.5637 C103.8104,22.0147 103.5864,22.5547 103.5864,23.1867 C103.5864,23.8227 103.8104,24.3647 104.2634,24.8167 C104.7144,25.2677 105.2564,25.4947 105.8934,25.4947 C106.5294,25.4947 107.0714,25.2677 107.5234,24.8167 C107.9794,24.3617 108.2064,23.8187 108.2064,23.1867 L108.2064,23.1867 Z M108.2064,26.7447 L108.2064,25.8987 C107.5254,26.5407 106.7154,26.8607 105.7784,26.8607 C104.7804,26.8607 103.9374,26.4987 103.2424,25.7767 C102.5464,25.0557 102.1994,24.1917 102.1994,23.1867 C102.1994,22.1767 102.5464,21.3107 103.2424,20.5897 C103.9374,19.8597 104.7804,19.4927 105.7784,19.4927 C106.7154,19.4927 107.5254,19.8207 108.2064,20.4747 L108.2064,19.6077 L109.5934,19.6077 L109.5934,26.7447 L108.2064,26.7447 Z" id="Fill-21" fill="#FEFEFE" mask="url(#mask-3)"></path>
                <path d="M24.595,22.342 C22.849,23.022 20.888,22.154 20.212,20.407 C19.736,19.17 18.338,18.547 17.094,19.037 C15.856,19.514 15.239,20.91 15.72,22.151 C16.4,23.9 15.533,25.859 13.788,26.538 C12.044,27.21 10.08,26.347 9.4,24.597 C8.723,22.857 9.591,20.892 11.335,20.216 C12.574,19.734 13.193,18.344 12.709,17.1 C12.232,15.856 10.833,15.244 9.593,15.723 C7.848,16.4 5.884,15.538 5.208,13.791 C4.531,12.045 5.4,10.086 7.146,9.404 C8.89,8.729 10.856,9.595 11.532,11.34 C12.009,12.578 13.404,13.196 14.645,12.714 C15.883,12.234 16.499,10.835 16.016,9.595 C15.342,7.854 16.207,5.894 17.95,5.213 C19.699,4.536 21.662,5.401 22.341,7.15 C23.015,8.892 22.15,10.855 20.409,11.533 C19.167,12.014 18.547,13.413 19.033,14.644 C19.509,15.889 20.909,16.505 22.15,16.018 C23.896,15.348 25.854,16.209 26.532,17.956 C27.206,19.699 26.34,21.665 24.595,22.342 M28.725,-1.77635684e-15 L3.027,-1.77635684e-15 C1.355,-1.77635684e-15 1.03028697e-13,1.356 1.03028697e-13,3.027 L1.03028697e-13,28.729 C1.03028697e-13,30.401 1.355,31.755 3.027,31.755 L28.725,31.755 C30.396,31.755 31.751,30.401 31.751,28.729 L31.751,3.027 C31.751,1.356 30.396,-1.77635684e-15 28.725,-1.77635684e-15" id="Fill-22" fill="#FEFEFE" mask="url(#mask-3)"></path>
            </g>
        </g>
    </g>
</svg>