<?xml version="1.0" encoding="UTF-8"?>
<svg width="143px" height="68px" viewBox="0 0 143 68" version="1.1" xmlns="http://www.w3.org/2000/svg" xmlns:xlink="http://www.w3.org/1999/xlink">
    <title>logo</title>
    <g id="Symbols" stroke="none" stroke-width="1" fill="none" fill-rule="evenodd">
        <g id="logo-cariplo" transform="translate(-33.000000, -33.000000)" fill="#333333">
            <path d="M133.6774,58.7569 C133.5484,56.8649 132.4654,55.1209 130.3184,55.1209 C128.4644,55.1209 127.0324,56.6819 126.8674,58.7569 L133.6774,58.7569 Z M130.5384,63.2529 C131.9884,63.2529 132.9794,62.6109 133.7504,61.7839 L134.3744,62.3349 C133.4204,63.3629 132.3004,64.0979 130.5014,64.0979 C128.0424,64.0979 125.9124,62.1339 125.9124,59.2159 L125.9124,59.1789 C125.9124,56.4609 127.8214,54.2949 130.3544,54.2949 C132.9794,54.2949 134.6504,56.4249 134.6504,59.1959 L134.6504,59.2339 C134.6504,59.3609 134.6504,59.4159 134.6314,59.5639 L126.8674,59.5639 C127.0324,61.8959 128.7024,63.2529 130.5384,63.2529 L130.5384,63.2529 Z M122.4194,63.8769 L122.4194,58.3159 C122.4194,56.3889 121.3364,55.1209 119.4464,55.1209 C117.6104,55.1209 116.1974,56.5169 116.1974,58.4629 L116.1974,63.8769 L115.2974,63.8769 L115.2974,54.5159 L116.1974,54.5159 L116.1974,56.2599 C116.8214,55.1579 117.8674,54.2949 119.5744,54.2949 C121.9424,54.2949 123.3194,55.9099 123.3194,58.1509 L123.3194,63.8769 L122.4194,63.8769 Z M111.9094,59.1959 C111.9094,56.9389 110.2204,55.1409 108.0544,55.1409 C105.8334,55.1409 104.2364,56.9569 104.2364,59.1589 L104.2364,59.1959 C104.2364,61.4539 105.9254,63.2529 108.0914,63.2529 C110.3124,63.2529 111.9094,61.4369 111.9094,59.2339 L111.9094,59.1959 Z M108.0544,64.0979 C105.2824,64.0979 103.2634,61.8589 103.2634,59.2339 L103.2634,59.1959 C103.2634,56.5709 105.3004,54.2949 108.0914,54.2949 C110.8624,54.2949 112.8814,56.5349 112.8814,59.1589 L112.8814,59.1959 C112.8814,61.8209 110.8444,64.0979 108.0544,64.0979 L108.0544,64.0979 Z M100.1824,63.8769 L101.0814,63.8769 L101.0814,54.5159 L100.1824,54.5159 L100.1824,63.8769 Z M100.0724,52.0739 L101.1924,52.0739 L101.1924,50.8449 L100.0724,50.8449 L100.0724,52.0739 Z M89.2374,63.8769 L89.2374,63.3629 L95.9924,55.3229 L89.4934,55.3229 L89.4934,54.5159 L97.3324,54.5159 L97.3324,55.0289 L90.5774,63.0689 L97.3324,63.0689 L97.3324,63.8769 L89.2374,63.8769 Z M85.4234,59.3069 C84.6344,59.1049 83.5884,58.8849 82.2484,58.8849 C80.2654,58.8849 79.1644,59.7659 79.1644,61.0689 L79.1644,61.1059 C79.1644,62.4649 80.4494,63.2529 81.8804,63.2529 C83.7894,63.2529 85.4234,62.0779 85.4234,60.3709 L85.4234,59.3069 Z M85.4054,63.8769 L85.4054,62.3179 C84.7624,63.2169 83.6064,64.0979 81.8254,64.0979 C80.0824,64.0979 78.2094,63.1069 78.2094,61.1599 L78.2094,61.1239 C78.2094,59.1789 79.8804,58.0759 82.3034,58.0759 C83.6064,58.0759 84.5054,58.2419 85.4054,58.4809 L85.4054,58.0759 C85.4054,56.1869 84.2484,55.2139 82.3214,55.2139 C81.1834,55.2139 80.2474,55.5259 79.3844,55.9659 L79.0544,55.1769 C80.0824,54.6989 81.0914,54.3689 82.3764,54.3689 C84.7814,54.3689 86.2864,55.6169 86.2864,58.0399 L86.2864,63.8769 L85.4054,63.8769 Z M74.7214,59.1789 C74.7214,56.7739 72.8484,55.1579 70.9034,55.1579 C68.8654,55.1579 67.2314,56.6459 67.2314,59.1589 L67.2314,59.1959 C67.2314,61.6559 68.9394,63.2349 70.9034,63.2349 C72.8484,63.2349 74.7214,61.6019 74.7214,59.2159 L74.7214,59.1789 Z M74.6664,63.8769 L74.6664,61.7839 C73.8584,63.0149 72.6654,64.0979 70.8114,64.0979 C68.5534,64.0979 66.2584,62.2799 66.2584,59.2339 L66.2584,59.1959 C66.2584,56.1499 68.5534,54.2949 70.8114,54.2949 C72.6834,54.2949 73.8954,55.3609 74.6664,56.5349 L74.6664,50.4779 L75.5654,50.4779 L75.5654,63.8769 L74.6664,63.8769 Z M63.0954,63.8769 L63.0954,58.3159 C63.0954,56.3889 62.0124,55.1209 60.1214,55.1209 C58.2864,55.1209 56.8724,56.5169 56.8724,58.4629 L56.8724,63.8769 L55.9734,63.8769 L55.9734,54.5159 L56.8724,54.5159 L56.8724,56.2599 C57.4964,55.1579 58.5434,54.2949 60.2504,54.2949 C62.6184,54.2949 63.9954,55.9099 63.9954,58.1509 L63.9954,63.8769 L63.0954,63.8769 Z M52.5854,59.1959 C52.5854,56.9389 50.8964,55.1409 48.7304,55.1409 C46.5094,55.1409 44.9124,56.9569 44.9124,59.1589 L44.9124,59.1959 C44.9124,61.4539 46.6004,63.2529 48.7674,63.2529 C50.9884,63.2529 52.5854,61.4369 52.5854,59.2339 L52.5854,59.1959 Z M48.7304,64.0979 C45.9584,64.0979 43.9394,61.8589 43.9394,59.2339 L43.9394,59.1959 C43.9394,56.5709 45.9764,54.2949 48.7674,54.2949 C51.5384,54.2949 53.5574,56.5349 53.5574,59.1589 L53.5574,59.1959 C53.5574,61.8209 51.5204,64.0979 48.7304,64.0979 L48.7304,64.0979 Z M34.3324,51.3299 L34.3324,57.1779 L41.6014,57.1779 L41.6014,58.0589 L34.3324,58.0589 L34.3324,63.8769 L33.3784,63.8769 L33.3784,50.4489 L42.4284,50.4489 L42.4284,51.3299 L34.3324,51.3299 Z M175.1104,33.3779 L151.3644,57.1239 L157.4014,63.1619 C154.2724,67.0609 152.4004,72.0089 152.4004,77.3819 C152.4004,89.9129 162.5814,100.1099 175.1104,100.1349 L175.1104,95.1329 C165.3394,95.1079 157.4014,87.1549 157.4014,77.3819 C157.4014,73.3839 158.7274,69.6939 160.9634,66.7249 L175.1104,80.8709 L175.1104,73.7979 L164.5004,63.1879 C167.4584,60.9579 171.1344,59.6369 175.1104,59.6249 L175.1104,54.6239 C169.7554,54.6349 164.8254,56.5069 160.9384,59.6249 L158.4374,57.1239 L175.1104,40.4509 L175.1104,33.3779 Z M126.5394,70.8609 C123.4424,70.8609 121.2814,73.3329 121.2814,76.3859 C121.2814,79.4379 123.4874,81.9549 126.5844,81.9549 C129.6814,81.9549 131.8424,79.4829 131.8424,76.4299 C131.8424,73.3769 129.6364,70.8609 126.5394,70.8609 L126.5394,70.8609 Z M126.5394,84.4729 C121.7494,84.4729 118.4074,80.8419 118.4074,76.4299 C118.4074,72.0189 121.7944,68.3429 126.5844,68.3429 C131.3744,68.3429 134.7164,71.9739 134.7164,76.3859 C134.7164,80.7969 131.3294,84.4729 126.5394,84.4729 L126.5394,84.4729 Z M106.5544,68.6099 L109.2954,68.6099 L109.2954,81.7099 L117.1364,81.7099 L117.1364,84.2049 L106.5544,84.2049 L106.5544,68.6099 Z M96.8834,71.1059 L93.6974,71.1059 L93.6974,76.7199 L96.8834,76.7199 C98.9544,76.7199 100.2474,75.5829 100.2474,73.9119 C100.2474,72.0639 98.9324,71.1059 96.8834,71.1059 L96.8834,71.1059 Z M96.7934,79.1929 L93.6974,79.1929 L93.6974,84.2049 L90.9564,84.2049 L90.9564,68.6099 L97.1054,68.6099 C100.7374,68.6099 103.0324,70.6589 103.0324,73.8459 C103.0324,77.3649 100.2244,79.1929 96.7934,79.1929 L96.7934,79.1929 Z M84.0504,84.2049 L86.7904,84.2049 L86.7904,68.6099 L84.0504,68.6099 L84.0504,84.2049 Z M74.1554,71.1059 L70.1674,71.1059 L70.1674,76.3409 L74.1784,76.3409 C76.1384,76.3409 77.3864,75.3159 77.3864,73.7109 C77.3864,71.9959 76.1834,71.1059 74.1554,71.1059 L74.1554,71.1059 Z M77.4304,84.2049 L73.5984,78.7699 L70.1674,78.7699 L70.1674,84.2049 L67.4274,84.2049 L67.4274,68.6099 L74.3784,68.6099 C77.9654,68.6099 80.1714,70.5029 80.1714,73.5559 C80.1714,76.1409 78.6334,77.6989 76.4504,78.3019 L80.6614,84.2049 L77.4304,84.2049 Z M56.9334,71.7739 L54.2594,78.0119 L59.6294,78.0119 L56.9334,71.7739 Z M65.1094,84.2049 L62.2134,84.2049 L60.6314,80.4409 L53.2574,80.4409 L51.6534,84.2049 L48.8464,84.2049 L55.7084,68.4979 L58.2474,68.4979 L65.1094,84.2049 Z M41.3374,84.4729 C36.7924,84.4729 33.4064,80.9309 33.4064,76.4299 C33.4064,71.9739 36.7254,68.3429 41.4484,68.3429 C44.3224,68.3429 46.0604,69.3459 47.5534,70.7719 L45.7934,72.7989 C44.5454,71.6399 43.2094,70.8609 41.4264,70.8609 C38.4414,70.8609 36.2804,73.3109 36.2804,76.3859 C36.2804,79.4589 38.4414,81.9549 41.4264,81.9549 C43.3424,81.9549 44.5674,81.1759 45.9044,79.9279 L47.6644,81.7099 C46.0384,83.4029 44.2564,84.4729 41.3374,84.4729 L41.3374,84.4729 Z" id="logo"></path>
        </g>
    </g>
</svg>